<svg width="20" height="20" viewBox="0 0 20 20" fill="none" xmlns="http://www.w3.org/2000/svg">
<path d="M10 1.33398L0 6.00065L2.66667 7.20065V9.46732C1.86667 9.73398 1.33333 10.534 1.33333 11.334C1.33333 12.134 1.86667 12.934 2.66667 13.2007V13.334L1.46667 16.134C1.06667 17.334 1.33333 18.6673 3.33333 18.6673C5.33333 18.6673 5.6 17.334 5.2 16.134L4 13.334C4.8 12.934 5.33333 12.2673 5.33333 11.334C5.33333 10.4007 4.8 9.73398 4 9.46732V7.86732L10 10.6673L20 6.00065L10 1.33398ZM15.8667 10.0007L9.86667 12.6673L6.66667 11.2007V11.334C6.66667 12.2673 6.26667 13.0673 5.6 13.734L6.4 15.6007V15.734C6.53333 16.2673 6.66667 16.8007 6.53333 17.334C7.46667 17.734 8.53333 18.0007 9.86667 18.0007C14.2667 18.0007 15.8667 15.334 15.8667 14.0007V10.0007Z" fill="#0C2F5D"/>
</svg>
