<svg width="24" height="24" viewBox="0 0 24 24" fill="none" xmlns="http://www.w3.org/2000/svg">
<path d="M21.4561 18.0835C21.3528 18.3816 21.1362 18.627 20.8532 18.7666C20.5703 18.9062 20.2437 18.9287 19.9442 18.8293C19.6448 18.7299 19.3965 18.5166 19.2532 18.2355C19.1099 17.9544 19.0831 17.6282 19.1785 17.3275C19.5943 16.0599 19.8041 14.7339 19.8001 13.3999C19.8001 8.05267 16.4929 4.50547 12.0001 4.50547C7.5073 4.50547 4.2001 8.05267 4.2001 13.3999C4.2001 14.7679 4.4137 16.0963 4.8217 17.3275C4.91713 17.6282 4.89029 17.9544 4.74697 18.2355C4.60365 18.5166 4.35539 18.7299 4.05594 18.8293C3.75649 18.9287 3.42994 18.9062 3.14698 18.7666C2.86403 18.627 2.64743 18.3816 2.5441 18.0835C2.04731 16.5721 1.79612 14.9908 1.8001 13.3999C1.8001 6.76387 6.1429 2.10547 12.0001 2.10547C17.8573 2.10547 22.2001 6.76387 22.2001 13.3999C22.2001 15.0247 21.9457 16.6075 21.4561 18.0835Z" fill="#1B3A7A"/>
<path d="M7.17258 20.4422C6.22154 20.4239 5.3164 20.0299 4.65491 19.3464C3.99341 18.6629 3.62932 17.7453 3.64218 16.7942V16.7678C3.64889 16.2969 3.74853 15.832 3.93539 15.3998C4.12224 14.9676 4.39263 14.5765 4.73103 14.249C5.06942 13.9215 5.46916 13.6641 5.9073 13.4916C6.34544 13.319 6.81336 13.2347 7.28418 13.2434C7.60098 13.2497 7.90242 13.3811 8.12274 13.6088C8.34306 13.8365 8.46436 14.1422 8.46018 14.459L8.39537 19.259C8.39319 19.4171 8.35978 19.5732 8.29707 19.7184C8.23435 19.8635 8.14357 19.9948 8.02994 20.1048C7.91631 20.2147 7.78207 20.3011 7.63493 20.3591C7.48779 20.417 7.33067 20.4452 7.17258 20.4422ZM16.907 13.2014C17.858 13.2197 18.7631 13.6136 19.4246 14.2972C20.0861 14.9807 20.4502 15.8983 20.4374 16.8494V16.8758C20.4241 17.8234 20.0352 18.727 19.3562 19.388C18.6771 20.0491 17.7634 20.4136 16.8158 20.4014H16.7966C16.4794 20.3954 16.1774 20.264 15.9568 20.036C15.7362 19.808 15.6149 19.5018 15.6194 19.1846L15.6842 14.3846C15.6864 14.2265 15.7198 14.0704 15.7825 13.9252C15.8452 13.7801 15.936 13.6487 16.0496 13.5388C16.1632 13.4288 16.2975 13.3424 16.4446 13.2845C16.5918 13.2266 16.7489 13.1984 16.907 13.2014Z" fill="#1B3A7A"/>
</svg>
