<svg width="24" height="24" viewBox="0 0 24 24" fill="none" xmlns="http://www.w3.org/2000/svg">
<g clip-path="url(#clip0_274_22823)">
<path d="M1.70035 2.36865L2.36898 1.69965C2.97751 1.09157 3.80258 0.75 4.66285 0.75C5.52312 0.75 6.3482 1.09157 6.95673 1.69965L20.468 15.2116L23.1459 22.2136C23.4601 23.0424 23.0405 23.4598 22.2144 23.144L15.2112 20.4688L1.70035 6.9564C0.432479 5.6904 0.433979 3.63652 1.70035 2.36865ZM10.1862 5.9259L9.24573 6.86602L18.5322 16.1533L19.4727 15.2124L10.1862 5.9259ZM8.74848 7.36365L7.36285 8.74965L16.649 18.0365L18.0346 16.6509L8.74848 7.36365ZM19.8654 21.4948L21.4936 19.865L19.9182 15.7621L15.7636 19.916L19.8654 21.4948ZM15.2112 19.4746L16.151 18.5338L6.86523 9.2469L5.92473 10.1878L15.2112 19.4746ZM5.38285 9.6459L9.64473 5.38477L8.5846 4.32427L4.32273 8.5854L5.38285 9.6459Z" fill="#1B3A7A"/>
</g>
<defs>
<clipPath id="clip0_274_22823">
<rect width="24" height="24" fill="white" transform="matrix(-1 0 0 1 24 0)"/>
</clipPath>
</defs>
</svg>
