<svg width="152" height="36" viewBox="0 0 152 36" fill="none" xmlns="http://www.w3.org/2000/svg">
<path d="M35.8851 28.3242L36.3651 10.8282H39.4851L39.2931 17.2602L46.1091 10.8282H50.2851L41.5491 19.0362L50.8131 28.3242H44.2131L39.3411 21.4122C39.3651 21.9642 39.4131 22.5402 39.4371 23.1402C39.5091 24.3162 39.5811 25.5162 39.6291 26.6682C39.6771 27.2442 39.7011 27.7962 39.7251 28.3242H35.8851ZM54.3304 28.3242L54.6904 10.8282H57.7144L57.9304 28.3242H54.3304ZM72.7119 16.0602C72.7119 17.9562 71.9919 19.3482 70.7199 20.1162C71.5119 20.7162 72.2079 21.7482 72.9279 23.1402C73.3119 23.8842 73.7679 24.8202 74.2479 25.7562C74.7039 26.6682 75.1839 27.5802 75.5439 28.3242H71.3199L69.5439 23.7882V23.8122C68.5359 21.7242 67.8159 21.3162 66.2319 21.3162H65.0079V28.3242H61.4319V10.8282H66.9519C68.7759 10.8282 70.1919 11.2602 71.1759 12.1242C72.1839 12.9882 72.7119 14.3082 72.7119 16.0602ZM64.7919 12.8922V18.1242H67.1919C68.7039 18.1242 70.2399 17.0922 70.2399 16.0602C70.2399 13.5642 68.6799 12.8922 67.1919 12.8922H64.7919ZM89.7849 22.0842L87.3129 14.7642C87.1209 15.3882 86.9049 15.9882 86.7129 16.5882C86.5209 17.1882 86.3289 17.7882 86.1369 18.3642C85.9209 18.9642 85.7289 19.5642 85.5129 20.1882C85.3209 20.8122 85.1049 21.4362 84.8889 22.0842H89.7849ZM79.0569 28.3242L85.9689 10.8282H88.6809L95.5929 28.3242H91.3449L90.7209 25.6122H83.9049L83.0649 28.3242H79.0569ZM99.096 28.3242L99.552 11.1642H103.056L109.536 23.0442L109.848 10.8282H112.8V28.3242H108.84L102.288 15.9642C102.384 18.0282 102.48 20.0922 102.576 22.1802C102.672 24.2922 102.768 26.3322 102.864 28.3242H99.096ZM127.027 22.0842L124.555 14.7642C124.363 15.3882 124.147 15.9882 123.955 16.5882C123.763 17.1882 123.571 17.7882 123.379 18.3642C123.163 18.9642 122.971 19.5642 122.755 20.1882C122.563 20.8122 122.347 21.4362 122.131 22.0842H127.027ZM116.299 28.3242L123.211 10.8282H125.923L132.835 28.3242H128.587L127.963 25.6122H121.147L120.307 28.3242H116.299Z" fill="#1B3A79"/>
<path d="M19.8881 15.084C19.893 15.1586 19.8978 15.2332 19.9025 15.3077C19.9041 15.3331 19.9058 15.3584 19.9074 15.3837C19.9098 15.4203 19.9121 15.4569 19.9144 15.4935C19.9159 15.5154 19.9173 15.5374 19.9187 15.56C19.9217 15.6204 19.9224 15.6803 19.9218 15.7407C19.952 15.7496 19.952 15.7496 19.9829 15.7586C20.0612 15.7847 20.1326 15.8197 20.2056 15.8582C20.2705 15.8916 20.3358 15.9202 20.4039 15.9466C20.601 16.0238 20.7422 16.0901 20.8619 16.2676C20.8965 16.3181 20.9352 16.3654 20.9733 16.4133C20.9808 16.423 20.9884 16.4328 20.9962 16.4428C21.0525 16.5151 21.1112 16.585 21.1711 16.6543C21.3967 16.9153 21.3967 16.9153 21.4206 16.9869C21.4317 16.9869 21.4428 16.9869 21.4543 16.9869C21.4654 17.0147 21.4765 17.0425 21.4879 17.0711C21.499 17.0711 21.5102 17.0711 21.5216 17.0711C21.5479 17.1032 21.5723 17.1353 21.5963 17.169C21.6466 17.2386 21.6972 17.2995 21.7605 17.3574C21.7911 17.3911 21.7911 17.3911 21.7911 17.4416C21.8007 17.4454 21.8103 17.4492 21.8203 17.4532C21.8689 17.4813 21.8954 17.5154 21.93 17.5595C21.9419 17.5744 21.9538 17.5893 21.966 17.6047C21.9931 17.6437 21.9931 17.6437 21.9931 17.6774C22.0043 17.6774 22.0154 17.6774 22.0268 17.6774C22.0336 17.6925 22.0336 17.6925 22.0405 17.7079C22.0586 17.7454 22.0586 17.7454 22.0879 17.7721C22.0955 17.7797 22.1031 17.7874 22.111 17.7952C22.111 17.8064 22.111 17.8175 22.111 17.8289C22.1332 17.84 22.1555 17.8511 22.1784 17.8626C22.1784 17.8793 22.1784 17.8959 22.1784 17.9131C22.188 17.917 22.1977 17.9208 22.2077 17.9248C22.256 17.9528 22.2817 17.9861 22.3163 18.0299C22.3296 18.0467 22.343 18.0635 22.3568 18.0808C22.3701 18.0977 22.3835 18.1146 22.3973 18.132C22.4207 18.1609 22.4442 18.1896 22.4678 18.2183C22.4801 18.2334 22.4924 18.2484 22.5051 18.2639C22.5603 18.3313 22.6156 18.3985 22.6709 18.4657C22.6809 18.4778 22.6908 18.4898 22.7011 18.5023C22.7107 18.5139 22.7203 18.5256 22.7302 18.5376C22.7393 18.5488 22.7485 18.56 22.758 18.5715C22.7753 18.5923 22.7928 18.613 22.8104 18.6334C22.8688 18.7012 22.8688 18.7012 22.8688 18.7383C22.8855 18.7438 22.9022 18.7494 22.9193 18.7551C22.925 18.7776 22.9306 18.8 22.9362 18.8225C22.9529 18.828 22.9695 18.8336 22.9867 18.8393C23.0138 18.8725 23.0389 18.9054 23.0635 18.9404C23.1085 19.0093 23.1085 19.0093 23.1719 19.0582C23.1775 19.0749 23.1831 19.0916 23.1888 19.1088C23.206 19.126 23.206 19.126 23.2235 19.1435C23.2397 19.1596 23.2397 19.1596 23.2561 19.1761C23.2561 19.1872 23.2561 19.1984 23.2561 19.2098C23.266 19.2138 23.2758 19.2178 23.2859 19.2219C23.3315 19.2481 23.3549 19.2775 23.3867 19.3193C23.397 19.3326 23.4073 19.346 23.418 19.3598C23.4414 19.395 23.4414 19.395 23.4414 19.4287C23.4525 19.4287 23.4636 19.4287 23.4751 19.4287C23.4796 19.4423 23.4841 19.4558 23.4887 19.4698C23.4953 19.484 23.5019 19.4983 23.5087 19.5129C23.5254 19.5185 23.5421 19.524 23.5593 19.5298C23.5883 19.5617 23.5883 19.5617 23.6203 19.6034C23.6381 19.6263 23.6381 19.6263 23.6563 19.6497C23.6687 19.6657 23.6812 19.6817 23.694 19.6982C23.7188 19.7288 23.7437 19.7593 23.7687 19.7897C23.7812 19.805 23.7937 19.8203 23.8065 19.836C23.8336 19.8689 23.8609 19.9018 23.8882 19.9345C23.9019 19.951 23.9156 19.9675 23.9297 19.9844C23.9422 19.9994 23.9548 20.0143 23.9676 20.0297C23.9971 20.0686 23.9971 20.0686 24.0139 20.1192C24.0251 20.1192 24.0362 20.1192 24.0476 20.1192C24.0689 20.1433 24.0689 20.1433 24.0929 20.1771C24.1062 20.1953 24.1062 20.1953 24.1197 20.214C24.1293 20.2271 24.1388 20.2403 24.1487 20.2539C24.1692 20.2814 24.1899 20.3087 24.2108 20.336C24.2249 20.3547 24.2249 20.3547 24.2394 20.3737C24.2673 20.4093 24.2673 20.4093 24.3171 20.4391C24.3226 20.4558 24.3282 20.4725 24.3339 20.4896C24.3506 20.5008 24.3673 20.5119 24.3844 20.5233C24.3844 20.54 24.3844 20.5567 24.3844 20.5738C24.4011 20.5794 24.4178 20.585 24.4349 20.5907C24.4617 20.6232 24.4864 20.6554 24.5107 20.6896C24.5599 20.7591 24.5599 20.7591 24.6165 20.8224C24.637 20.8433 24.637 20.8433 24.637 20.877C24.6537 20.8825 24.6704 20.8881 24.6875 20.8938C24.69 20.9046 24.6924 20.9153 24.6949 20.9264C24.698 20.9379 24.7012 20.9494 24.7044 20.9612C24.7196 20.9685 24.7196 20.9685 24.7351 20.9759C24.7795 20.9989 24.7984 21.0235 24.8286 21.0633C24.846 21.0857 24.846 21.0857 24.8638 21.1087C24.8737 21.1215 24.8737 21.1215 24.8838 21.1345C24.9293 21.1923 24.9765 21.2487 25.0233 21.3053C25.0438 21.3302 25.0643 21.3551 25.0849 21.38C25.0947 21.3919 25.1045 21.4038 25.1146 21.416C25.2068 21.5278 25.2986 21.6395 25.3863 21.7548C25.4109 21.7868 25.4109 21.7868 25.4402 21.8137C25.4622 21.8369 25.4622 21.8369 25.4622 21.8705C25.4733 21.8705 25.4844 21.8705 25.4959 21.8705C25.507 21.8983 25.5181 21.9261 25.5296 21.9547C25.5407 21.9547 25.5518 21.9547 25.5632 21.9547C25.5894 21.9872 25.6139 22.0197 25.638 22.0537C25.6768 22.1082 25.7086 22.1527 25.7653 22.1905C25.7709 22.2072 25.7764 22.2238 25.7822 22.241C25.8098 22.2695 25.8379 22.2975 25.8664 22.3252C25.897 22.3592 25.9265 22.3942 25.9558 22.4294C25.9635 22.4384 25.9711 22.4474 25.979 22.4566C26.0348 22.5233 26.0348 22.5233 26.0348 22.561C26.0459 22.561 26.057 22.561 26.0684 22.561C26.0955 22.5898 26.1213 22.6198 26.1463 22.6504C26.1601 22.667 26.1738 22.6837 26.188 22.7008C26.22 22.7462 26.22 22.7462 26.22 22.7967C26.2344 22.8024 26.2344 22.8024 26.2491 22.8082C26.2985 22.8369 26.3255 22.872 26.361 22.9167C26.3743 22.9333 26.3875 22.9499 26.4011 22.9669C26.4404 23.0176 26.4791 23.0687 26.5166 23.1208C26.5399 23.1516 26.5399 23.1516 26.5707 23.1805C26.6181 23.2287 26.6586 23.2811 26.6999 23.3346C26.7236 23.3649 26.7472 23.3953 26.7709 23.4257C26.7904 23.4507 26.8096 23.4758 26.8289 23.5009C26.8598 23.541 26.8598 23.541 26.9104 23.5714C26.9104 23.5881 26.9104 23.6047 26.9104 23.6219C26.9271 23.6275 26.9438 23.633 26.961 23.6387C26.9926 23.6757 27.0222 23.7126 27.0515 23.7514C27.0674 23.7721 27.0833 23.7929 27.0992 23.8137C27.107 23.8238 27.1147 23.834 27.1227 23.8445C27.1458 23.8739 27.1698 23.9023 27.1942 23.9306C27.2304 23.9755 27.2304 23.9755 27.2304 24.0092C27.2471 24.0148 27.2637 24.0203 27.2809 24.0261C27.2834 24.0368 27.2858 24.0476 27.2883 24.0587C27.2914 24.0702 27.2945 24.0816 27.2978 24.0934C27.3079 24.0983 27.318 24.1032 27.3285 24.1082C27.3729 24.1311 27.3918 24.1557 27.422 24.1955C27.4336 24.2105 27.4452 24.2255 27.4571 24.2409C27.4638 24.2494 27.4704 24.258 27.4772 24.2668C27.5227 24.3245 27.5698 24.3809 27.6167 24.4376C27.7331 24.5786 27.7331 24.5786 27.7815 24.6384C27.7945 24.6545 27.8075 24.6705 27.8209 24.687C27.8318 24.7007 27.8428 24.7143 27.8541 24.7283C27.8879 24.7691 27.8879 24.7691 27.9324 24.811C27.9714 24.8512 27.9714 24.8512 27.9882 24.9017C27.9997 24.9132 28.0111 24.9247 28.0229 24.9365C28.0337 24.9472 28.0445 24.958 28.0556 24.9691C28.0556 24.9802 28.0556 24.9913 28.0556 25.0028C28.0722 25.0083 28.0889 25.0139 28.1061 25.0196C28.1349 25.0542 28.1617 25.0886 28.1882 25.1249C28.23 25.1818 28.2706 25.2347 28.3209 25.2846C28.3587 25.3228 28.3587 25.3228 28.3755 25.3733C28.4032 25.4018 28.4313 25.4298 28.4597 25.4575C28.4904 25.4915 28.5198 25.5265 28.5492 25.5617C28.5568 25.5706 28.5645 25.5796 28.5724 25.5889C28.6281 25.6555 28.6281 25.6555 28.6281 25.6932C28.6392 25.6932 28.6504 25.6932 28.6618 25.6932C28.6905 25.727 28.7173 25.761 28.7439 25.7964C28.8192 25.8947 28.8975 25.9895 28.9793 26.0825C29.0203 26.1296 29.0588 26.1771 29.0948 26.2282C29.1306 26.2821 29.1306 26.2821 29.1712 26.3205C29.2007 26.35 29.2007 26.35 29.2175 26.4005C29.1807 26.4557 29.1561 26.4689 29.0996 26.5016C29.0646 26.5268 29.0299 26.5524 28.9955 26.5784C28.969 26.5982 28.969 26.5982 28.9421 26.6184C28.898 26.6513 28.898 26.6513 28.8639 26.6868C28.8472 26.6868 28.8305 26.6868 28.8134 26.6868C28.8078 26.7035 28.8023 26.7201 28.7965 26.7373C28.7567 26.7699 28.7567 26.7699 28.7071 26.8047C28.6908 26.8161 28.6745 26.8276 28.6578 26.8394C28.6348 26.8556 28.6348 26.8556 28.6113 26.872C28.5989 26.8818 28.5865 26.8915 28.5737 26.9015C28.5439 26.9226 28.5439 26.9226 28.5102 26.9226C28.5047 26.9392 28.4991 26.9559 28.4934 26.9731C28.4642 26.9974 28.4338 27.0204 28.4029 27.0425C28.3843 27.0561 28.3658 27.0696 28.3473 27.0832C28.3379 27.0901 28.3285 27.097 28.3188 27.1041C28.2458 27.1587 28.1763 27.218 28.1061 27.2762C28.0752 27.3015 28.0444 27.3267 28.0135 27.352C27.9983 27.3644 27.9831 27.3768 27.9675 27.3896C27.9355 27.4158 27.9035 27.4419 27.8716 27.468C27.8555 27.4811 27.8395 27.4942 27.823 27.5078C27.8002 27.5263 27.8002 27.5263 27.7769 27.5453C27.7428 27.5734 27.7091 27.602 27.6756 27.6309C27.6346 27.6635 27.6346 27.6635 27.6009 27.6635C27.5953 27.6802 27.5898 27.6969 27.584 27.714C27.5478 27.7474 27.5478 27.7474 27.5009 27.7846C27.4842 27.7979 27.4675 27.8113 27.4503 27.825C27.4333 27.8384 27.4163 27.8518 27.3988 27.8656C27.2988 27.9445 27.2046 28.0218 27.1178 28.115C27.0957 28.135 27.0957 28.135 27.062 28.135C27.062 28.1462 27.062 28.1573 27.062 28.1687C27.0344 28.1932 27.0058 28.2165 26.9767 28.2392C26.9094 28.2931 26.8471 28.3478 26.7872 28.4097C26.7226 28.4746 26.6527 28.5343 26.58 28.5897C26.5453 28.6189 26.52 28.6464 26.4915 28.6813C26.4576 28.7223 26.4254 28.7529 26.381 28.7823C26.3209 28.8225 26.279 28.8716 26.2328 28.9268C26.196 28.9683 26.1555 29.0028 26.1128 29.0381C26.0625 29.0804 26.0174 29.1279 25.9727 29.176C25.9506 29.196 25.9506 29.196 25.9169 29.196C25.9131 29.2053 25.9092 29.2147 25.9053 29.2244C25.8769 29.2745 25.8417 29.3091 25.799 29.3475C25.7879 29.3475 25.7768 29.3475 25.7653 29.3475C25.7615 29.3569 25.7577 29.3663 25.7537 29.3759C25.7253 29.426 25.6901 29.4607 25.6474 29.4991C25.6363 29.4991 25.6252 29.4991 25.6138 29.4991C25.607 29.5152 25.607 29.5152 25.6001 29.5317C25.5801 29.5664 25.5801 29.5664 25.5296 29.5833C25.5237 29.6057 25.5181 29.6281 25.5127 29.6507C25.4894 29.6746 25.4894 29.6746 25.4601 29.697C25.4132 29.7349 25.3738 29.774 25.3348 29.8201C25.2993 29.8621 25.2644 29.8986 25.2212 29.9327C25.1756 29.9657 25.1756 29.9657 25.1599 30.0034C25.1396 30.043 25.1179 30.062 25.0833 30.0895C25.0423 30.1223 25.0206 30.1446 24.9907 30.1895C24.9796 30.1895 24.9684 30.1895 24.957 30.1895C24.9528 30.1989 24.9487 30.2083 24.9444 30.218C24.911 30.2796 24.868 30.3291 24.8185 30.3785C24.7645 30.4326 24.7122 30.4882 24.6602 30.5442C24.6505 30.5545 24.6409 30.5648 24.631 30.5754C24.5927 30.6166 24.5561 30.6566 24.523 30.702C24.5161 30.7107 24.5093 30.7194 24.5023 30.7284C24.4912 30.7284 24.4801 30.7284 24.4686 30.7284C24.4676 30.7378 24.4665 30.7472 24.4655 30.7568C24.4459 30.8124 24.4104 30.84 24.3676 30.88C24.3038 30.9418 24.2456 31.0067 24.1887 31.0747C24.1806 31.0842 24.1726 31.0937 24.1643 31.1035C24.1313 31.1427 24.0991 31.1818 24.0693 31.2236C24.0622 31.2324 24.055 31.2413 24.0476 31.2505C24.0365 31.2505 24.0254 31.2505 24.0139 31.2505C24.0122 31.2609 24.0105 31.2713 24.0087 31.282C23.9971 31.3178 23.9971 31.3178 23.9466 31.3515C23.941 31.3682 23.9355 31.3848 23.9297 31.402C23.9018 31.4302 23.8737 31.4583 23.8455 31.4862C23.8038 31.537 23.7645 31.5897 23.725 31.6423C23.7042 31.6694 23.6823 31.6958 23.6603 31.722C23.6492 31.722 23.6381 31.722 23.6266 31.722C23.6249 31.7321 23.6232 31.7421 23.6214 31.7525C23.6082 31.7945 23.5913 31.8105 23.5593 31.8399C23.5537 31.851 23.5481 31.8621 23.5424 31.8735C23.5313 31.8735 23.5202 31.8735 23.5087 31.8735C23.5049 31.8824 23.5011 31.8913 23.4972 31.9004C23.4673 31.9551 23.4288 32.002 23.3898 32.0504C23.3731 32.0714 23.3564 32.0924 23.3397 32.1135C23.3271 32.1293 23.3271 32.1293 23.3143 32.1455C23.2406 32.2393 23.1674 32.3339 23.1024 32.434C23.0709 32.4798 23.0709 32.4798 23.0372 32.4966C23.0317 32.5133 23.0261 32.53 23.0204 32.5471C23.0093 32.5471 22.9982 32.5471 22.9867 32.5471C22.9799 32.5612 22.9799 32.5612 22.973 32.5756C22.9512 32.6181 22.929 32.6589 22.9025 32.6987C22.8914 32.6987 22.8803 32.6987 22.8688 32.6987C22.8672 32.7083 22.8655 32.7179 22.8638 32.7278C22.8495 32.7742 22.8277 32.802 22.7973 32.8397C22.7867 32.853 22.7761 32.8662 22.7651 32.8799C22.7396 32.9109 22.7138 32.9417 22.6878 32.9724C22.6532 33.0146 22.6273 33.0561 22.5994 33.1029C22.5796 33.1318 22.5596 33.1606 22.5394 33.1892C22.5083 33.2331 22.4777 33.277 22.4478 33.3218C22.4367 33.3218 22.4256 33.3218 22.4141 33.3218C22.4124 33.3313 22.4106 33.3407 22.4088 33.3505C22.3952 33.3963 22.3744 33.4294 22.3478 33.4691C22.339 33.4826 22.3302 33.4961 22.3211 33.5099C22.3129 33.5201 22.3047 33.5302 22.2963 33.5407C22.2851 33.5407 22.274 33.5407 22.2626 33.5407C22.261 33.5501 22.2594 33.5595 22.2578 33.5691C22.2427 33.618 22.218 33.6511 22.1879 33.6923C22.1519 33.7415 22.1197 33.7884 22.0942 33.8438C22.0831 33.8438 22.0719 33.8438 22.0605 33.8438C22.0563 33.856 22.0522 33.8681 22.0479 33.8807C22.0268 33.928 22.0268 33.928 21.9963 33.9659C21.9643 34.0061 21.9416 34.043 21.9174 34.088C21.8857 34.1467 21.8507 34.1966 21.8079 34.248C21.7908 34.2759 21.774 34.304 21.7574 34.3322C21.7413 34.3561 21.7252 34.38 21.709 34.4038C21.6739 34.4559 21.642 34.5085 21.6121 34.5637C21.5898 34.605 21.5693 34.6388 21.5395 34.6753C21.4948 34.7322 21.4634 34.7939 21.4294 34.8577C21.4003 34.911 21.3688 34.9622 21.336 35.0132C21.3185 35.0402 21.3185 35.0402 21.3027 35.0732C21.2916 35.0732 21.2805 35.0732 21.269 35.0732C21.267 35.0828 21.265 35.0925 21.263 35.1025C21.2514 35.1431 21.2354 35.1741 21.2142 35.2106C21.2064 35.2239 21.1987 35.2372 21.1908 35.2508C21.1826 35.2648 21.1743 35.2788 21.1659 35.2931C21.1575 35.3074 21.1492 35.3216 21.1407 35.3363C21.0792 35.441 21.0158 35.5443 20.9491 35.6457C20.8997 35.6217 20.8562 35.5974 20.8143 35.5615C20.8143 35.5504 20.8143 35.5393 20.8143 35.5278C20.8036 35.5261 20.7928 35.5244 20.7817 35.5226C20.7702 35.5188 20.7588 35.5149 20.747 35.511C20.7414 35.4943 20.7359 35.4777 20.7301 35.4605C20.7078 35.4545 20.6853 35.4489 20.6628 35.4436C20.6354 35.4184 20.6354 35.4184 20.6123 35.3931C20.6011 35.3876 20.59 35.382 20.5786 35.3763C20.5786 35.3652 20.5786 35.354 20.5786 35.3426C20.569 35.3382 20.5593 35.3338 20.5494 35.3293C20.508 35.3072 20.4749 35.2818 20.4386 35.2521C20.424 35.2402 20.4093 35.2283 20.3943 35.2161C20.3773 35.2023 20.3603 35.1884 20.3428 35.1742C20.2997 35.1394 20.2565 35.1047 20.2134 35.07C20.1978 35.0574 20.1978 35.0574 20.1819 35.0445C20.1302 35.0031 20.0782 34.9635 20.0236 34.926C19.9982 34.9071 19.9982 34.9071 19.9723 34.8879C19.9723 34.8768 19.9723 34.8657 19.9723 34.8542C19.9608 34.8504 19.9493 34.8466 19.9374 34.8427C19.8756 34.8149 19.8266 34.7779 19.7734 34.7364C19.7633 34.7288 19.7533 34.7212 19.7429 34.7133C19.7176 34.6938 19.6933 34.6731 19.6692 34.6522C19.6692 34.641 19.6692 34.6299 19.6692 34.6185C19.6596 34.6168 19.65 34.6152 19.6401 34.6135C19.5938 34.5991 19.5659 34.5773 19.5282 34.5469C19.515 34.5363 19.5017 34.5258 19.4881 34.5149C19.4567 34.489 19.4255 34.4628 19.3945 34.4364C19.3572 34.4061 19.3258 34.3844 19.2819 34.3659C19.2819 34.3548 19.2819 34.3436 19.2819 34.3322C19.27 34.328 19.258 34.3239 19.2458 34.3196C19.1915 34.2958 19.1492 34.2657 19.1019 34.2301C19.0427 34.1847 19.0427 34.1847 18.9788 34.147C18.9788 34.1358 18.9788 34.1247 18.9788 34.1133C18.9667 34.1091 18.9545 34.105 18.9421 34.1007C18.8893 34.0773 18.8523 34.0483 18.8083 34.0112C18.7475 33.9598 18.7475 33.9598 18.6756 33.928C18.6756 33.9169 18.6756 33.9058 18.6756 33.8943C18.6635 33.8902 18.6513 33.886 18.6388 33.8817C18.5871 33.8587 18.5508 33.8291 18.5072 33.7933C18.4852 33.7814 18.4628 33.7698 18.4399 33.7596C18.4399 33.7485 18.4399 33.7374 18.4399 33.7259C18.4288 33.7221 18.4177 33.7183 18.4062 33.7144C18.3408 33.6857 18.2776 33.6519 18.221 33.6081C18.221 33.597 18.221 33.5858 18.221 33.5744C18.2087 33.5699 18.1964 33.5655 18.1837 33.5609C18.1366 33.5406 18.1002 33.5173 18.0589 33.487C17.9989 33.444 17.9383 33.4031 17.8757 33.3639C17.8005 33.3165 17.7274 33.2668 17.6549 33.2153C17.5742 33.1586 17.4916 33.1057 17.4074 33.0545C17.3286 33.0064 17.2513 32.9568 17.1752 32.9046C17.1431 32.8839 17.1104 32.8667 17.0758 32.8503C17.0758 32.8392 17.0758 32.828 17.0758 32.8166C17.0615 32.8125 17.0471 32.8084 17.0324 32.8042C16.9696 32.781 16.9173 32.7494 16.8622 32.7124C16.8412 32.6986 16.8203 32.6849 16.7993 32.6711C16.7839 32.661 16.7839 32.661 16.7682 32.6506C16.645 32.5693 16.5193 32.4924 16.3924 32.417C16.3342 32.3822 16.2772 32.3465 16.2212 32.3082C16.1536 32.2622 16.0829 32.2236 16.0108 32.1851C15.9224 32.137 15.8368 32.0838 15.751 32.0312C15.7363 32.0222 15.7216 32.0133 15.7065 32.0041C15.6934 31.996 15.6803 31.9879 15.6667 31.9796C15.6266 31.9572 15.5864 31.9402 15.5434 31.9241C15.5434 31.9129 15.5434 31.9018 15.5434 31.8904C15.5305 31.8869 15.5177 31.8834 15.5044 31.8799C15.3879 31.8364 15.2818 31.7712 15.1761 31.7062C15.1123 31.6674 15.0474 31.6336 14.9803 31.6009C14.8659 31.5448 14.7563 31.4821 14.6466 31.4173C14.5748 31.375 14.5026 31.3353 14.4277 31.2987C14.3795 31.2748 14.3332 31.2478 14.2866 31.2209C14.2459 31.1995 14.2042 31.182 14.1618 31.1641C14.099 31.1361 14.0389 31.1029 13.9783 31.0705C13.843 30.9986 13.7068 30.9292 13.5695 30.8612C13.5236 30.8385 13.4779 30.8155 13.4321 30.7926C13.4161 30.7846 13.4001 30.7766 13.3836 30.7684C13.3529 30.753 13.3222 30.7376 13.2916 30.7221C13.2772 30.7148 13.2627 30.7075 13.2479 30.7C13.2292 30.6905 13.2292 30.6905 13.2102 30.6809C13.1779 30.6654 13.1452 30.6509 13.1123 30.6368C13.0526 30.6112 12.9939 30.5838 12.9353 30.5558C12.7616 30.4734 12.5865 30.3944 12.4114 30.3151C12.3999 30.3099 12.3883 30.3046 12.3765 30.2992C12.3535 30.2889 12.3306 30.2785 12.3077 30.2681C12.2353 30.2352 12.163 30.2019 12.0909 30.1683C11.993 30.123 11.894 30.0833 11.7933 30.0446C11.7375 30.0211 11.7375 30.0211 11.6958 29.9958C11.643 29.9645 11.5877 29.9447 11.5302 29.9243C11.422 29.8849 11.3164 29.8415 11.2114 29.7944C11.067 29.7297 10.9193 29.6738 10.7713 29.618C10.6599 29.5758 10.5491 29.5326 10.4393 29.486C10.2671 29.4123 10.2671 29.4123 10.091 29.3498C10.0406 29.3241 10.0317 29.2991 10.0093 29.2475C9.96425 29.1507 9.91373 29.0587 9.85986 28.9665C9.84769 28.9456 9.84769 28.9456 9.83527 28.9243C9.78703 28.8418 9.73801 28.7598 9.68844 28.6781C9.66341 28.6355 9.64005 28.5922 9.61673 28.5487C9.57397 28.4695 9.52729 28.3938 9.4784 28.3182C9.44513 28.2664 9.41301 28.214 9.38097 28.1614C9.32416 28.0684 9.26435 27.9783 9.20257 27.8886C9.17784 27.8488 9.17784 27.8488 9.17784 27.8151C9.16673 27.8151 9.15561 27.8151 9.14416 27.8151C9.12023 27.7797 9.09825 27.7446 9.0768 27.7077C9.03245 27.6306 9.03245 27.6306 8.97576 27.5625C8.97576 27.5458 8.97576 27.5291 8.97576 27.512C8.96465 27.512 8.95353 27.512 8.94208 27.512C8.91543 27.4767 8.89063 27.4415 8.8663 27.4046C8.81631 27.3283 8.81631 27.3283 8.75684 27.2594C8.75684 27.2427 8.75684 27.226 8.75684 27.2088C8.74572 27.2088 8.73461 27.2088 8.72316 27.2088C8.70145 27.1842 8.70145 27.1842 8.67895 27.152C8.66769 27.1362 8.66769 27.1362 8.65619 27.12C8.63896 27.091 8.63896 27.091 8.63896 27.0573C8.62784 27.0573 8.61673 27.0573 8.60528 27.0573C8.59972 27.0406 8.59416 27.0239 8.58844 27.0068C8.56641 26.9839 8.5439 26.9615 8.52108 26.9394C8.49959 26.9138 8.47853 26.8878 8.45793 26.8615C8.44243 26.8419 8.44243 26.8419 8.42662 26.8219C8.4032 26.7878 8.4032 26.7878 8.4032 26.7542C8.39208 26.7542 8.38097 26.7542 8.36952 26.7542C8.36778 26.7434 8.36604 26.7326 8.36425 26.7215C8.36043 26.7101 8.35661 26.6986 8.35268 26.6868C8.33601 26.6812 8.31933 26.6757 8.30216 26.67C8.29973 26.6592 8.29729 26.6484 8.29479 26.6373C8.29166 26.6259 8.28854 26.6144 8.28532 26.6026C8.27531 26.5979 8.2653 26.5932 8.25499 26.5883C8.20834 26.5639 8.18677 26.5349 8.15481 26.4931C8.14321 26.4782 8.13162 26.4633 8.11968 26.4479C8.10765 26.4323 8.09563 26.4166 8.08324 26.4005C8.05877 26.3692 8.03421 26.338 8.00956 26.3068C7.99866 26.2929 7.98777 26.279 7.97654 26.2647C7.95083 26.2306 7.95083 26.2306 7.91483 26.2153C7.90928 26.1986 7.90372 26.1819 7.89799 26.1648C7.86895 26.1381 7.83822 26.1146 7.80695 26.0906C7.77583 26.0594 7.77241 26.0385 7.76327 25.9964C7.7411 25.9846 7.71864 25.9733 7.69591 25.9627C7.69036 25.946 7.6848 25.9293 7.67907 25.9122C7.66796 25.9122 7.65684 25.9122 7.64539 25.9122C7.62046 25.8868 7.62046 25.8868 7.59172 25.8522C7.55222 25.8056 7.51222 25.7612 7.46857 25.7185C7.42894 25.6797 7.3919 25.6397 7.35589 25.5975C7.29023 25.522 7.22058 25.4512 7.14966 25.3806C7.13167 25.3626 7.13167 25.3626 7.11332 25.3441C7.03522 25.2661 6.95445 25.1925 6.87075 25.1207C6.83688 25.091 6.80327 25.0612 6.76971 25.0312C6.75373 25.017 6.73776 25.0029 6.72129 24.9883C6.68551 24.9523 6.68551 24.9523 6.68551 24.9186C6.67613 24.9144 6.66675 24.9103 6.65709 24.906C6.60063 24.8754 6.54632 24.8423 6.51711 24.7839C6.50044 24.7783 6.48377 24.7728 6.46659 24.767C6.43793 24.7396 6.40995 24.7114 6.38239 24.6828C6.35065 24.6532 6.31872 24.6237 6.28661 24.5944C6.27057 24.5797 6.25453 24.5651 6.238 24.5499C6.20048 24.5143 6.20048 24.5143 6.16347 24.4976C6.16347 24.4865 6.16347 24.4754 6.16347 24.4639C6.13568 24.4528 6.10789 24.4417 6.07927 24.4302C6.07927 24.4191 6.07927 24.408 6.07927 24.3965C6.06989 24.3955 6.06051 24.3945 6.05085 24.3934C5.99605 24.3741 5.96864 24.3366 5.92771 24.2955C5.89328 24.2678 5.85882 24.2409 5.82351 24.2145C5.80405 24.1997 5.7846 24.185 5.76516 24.1702C5.75561 24.1629 5.74606 24.1557 5.73622 24.1482C5.69701 24.118 5.65872 24.0868 5.62037 24.0555C5.55508 24.0027 5.48747 23.9562 5.41606 23.912C5.40258 23.9018 5.40258 23.9018 5.38882 23.8913C5.38882 23.8802 5.38882 23.8691 5.38882 23.8577C5.37945 23.8563 5.37007 23.8549 5.36041 23.8535C5.30899 23.8368 5.27916 23.8079 5.23726 23.7735C5.19708 23.747 5.15661 23.7211 5.1159 23.6954C5.10593 23.6878 5.09597 23.6803 5.0857 23.6724C5.0857 23.6613 5.0857 23.6502 5.0857 23.6387C5.07459 23.6349 5.06347 23.6311 5.05202 23.6272C4.98657 23.5985 4.92342 23.5647 4.86678 23.5209C4.86678 23.5097 4.86678 23.4986 4.86678 23.4872C4.839 23.4816 4.81121 23.4761 4.78258 23.4703C4.78258 23.4592 4.78258 23.4481 4.78258 23.4367C4.76695 23.4318 4.75132 23.4269 4.73522 23.4219C4.68154 23.403 4.68154 23.403 4.63102 23.3693C4.63102 23.3582 4.63102 23.3471 4.63102 23.3356C4.61991 23.3318 4.60879 23.328 4.59734 23.324C4.55614 23.306 4.52238 23.2875 4.48479 23.2635C4.41613 23.2201 4.34647 23.1787 4.27633 23.1378C4.18132 23.0821 4.08654 23.0261 3.99215 22.9693C3.98169 22.9631 3.97123 22.9568 3.96045 22.9503C3.91589 22.9236 3.87143 22.8967 3.82717 22.8694C3.74087 22.8165 3.65301 22.7699 3.56214 22.7254C3.4891 22.6889 3.417 22.6508 3.34486 22.6126C3.23246 22.5531 3.11963 22.4949 3.00569 22.4385C2.96263 22.4172 2.91966 22.3957 2.87676 22.374C2.85882 22.365 2.85882 22.365 2.84053 22.3558C2.81758 22.3442 2.79465 22.3326 2.77173 22.321C2.67155 22.2707 2.56867 22.2277 2.46497 22.1852C2.39214 22.155 2.32054 22.123 2.2492 22.0895C2.14124 22.0391 2.03131 21.9964 1.91977 21.9547C1.81883 21.9164 1.71813 21.8777 1.61809 21.8371C1.60344 21.8311 1.58879 21.8252 1.5737 21.8191C1.54493 21.8074 1.51619 21.7957 1.48748 21.7839C1.40477 21.7504 1.32199 21.7222 1.23628 21.6974C1.17416 21.6789 1.11343 21.6568 1.0525 21.6348C0.96481 21.6034 0.877275 21.5737 0.787734 21.5479C0.735277 21.532 0.683486 21.5145 0.631581 21.4968C0.517113 21.4579 0.403559 21.422 0.285755 21.3943C0.189678 21.371 0.0949192 21.3425 0 21.3148C0.022229 21.2481 0.048848 21.2413 0.10946 21.2075C0.126306 21.1979 0.143151 21.1884 0.160507 21.1786C0.189422 21.1627 0.189422 21.1627 0.218921 21.1464C0.236333 21.1367 0.236333 21.1367 0.254098 21.1268C0.453769 21.0152 0.655235 20.9071 0.863975 20.8134C0.90133 20.7964 0.937369 20.7784 0.973567 20.7591C1.0708 20.7098 1.17492 20.6752 1.27716 20.6378C1.32519 20.6201 1.37305 20.6019 1.42091 20.5838C1.52476 20.5445 1.62881 20.5068 1.73453 20.4728C1.73453 20.4561 1.73453 20.4395 1.73453 20.4223C1.72241 20.4207 1.7103 20.4192 1.69782 20.4176C1.64243 20.4034 1.60969 20.3806 1.56402 20.3465C1.51831 20.3126 1.4856 20.2888 1.43141 20.2707C1.43141 20.2596 1.43141 20.2485 1.43141 20.237C1.4189 20.2322 1.4064 20.2273 1.39352 20.2223C1.35449 20.2063 1.31724 20.1891 1.27985 20.1697C1.27985 20.153 1.27985 20.1363 1.27985 20.1192C1.33563 20.1121 1.39141 20.1051 1.44719 20.0981C1.46489 20.0959 1.48259 20.0937 1.50082 20.0914C1.60967 20.0778 1.71855 20.0645 1.82748 20.0515C1.85209 20.0485 1.87671 20.0456 1.90132 20.0426C1.93754 20.0383 1.97376 20.034 2.00999 20.0297C2.13901 20.0146 2.26723 19.9973 2.39525 19.9752C2.46802 19.9634 2.54107 19.9558 2.61442 19.9487C2.62877 19.9472 2.64312 19.9458 2.6579 19.9443C2.69252 19.9408 2.72715 19.9373 2.76177 19.9339C2.73862 19.8876 2.71079 19.8798 2.66494 19.856C2.57017 19.8057 2.47957 19.7506 2.38873 19.6937C2.35083 19.6706 2.31348 19.6497 2.27341 19.6308C2.27341 19.6197 2.27341 19.6086 2.27341 19.5971C2.25952 19.593 2.24562 19.5888 2.23131 19.5845C2.16355 19.5603 2.10131 19.5294 2.03765 19.4961C2.04321 19.4739 2.04876 19.4516 2.05449 19.4287C2.06976 19.4295 2.08503 19.4303 2.10076 19.4312C3.06158 19.483 3.06158 19.483 4.0233 19.5111C4.13508 19.5129 4.24673 19.5166 4.35842 19.5213C4.37333 19.5219 4.38823 19.5225 4.40358 19.5232C4.47502 19.5265 4.54378 19.533 4.61418 19.5466C4.61359 19.5712 4.61359 19.5712 4.613 19.5962C4.60797 19.9002 4.62584 20.1859 4.7358 20.4715C4.75886 20.5331 4.77904 20.5956 4.79942 20.658C4.81054 20.658 4.82165 20.658 4.8331 20.658C4.85066 20.6822 4.85066 20.6822 4.86994 20.7159C4.92823 20.813 4.99057 20.9146 5.0857 20.978C5.0857 20.9891 5.0857 21.0002 5.0857 21.0117C5.09786 21.0159 5.11002 21.02 5.12254 21.0243C5.17485 21.0476 5.20936 21.0769 5.2541 21.1127C5.39032 21.2018 5.53024 21.2698 5.68537 21.3186C5.71248 21.3274 5.73933 21.337 5.76588 21.3474C5.98755 21.4307 6.23105 21.4627 6.46646 21.4745C6.47791 21.4751 6.48936 21.4757 6.50116 21.4763C6.55731 21.4791 6.61333 21.4813 6.66955 21.4826C6.82448 21.4889 6.93662 21.5287 7.07283 21.6011C7.09658 21.6119 7.12041 21.6225 7.1444 21.6327C7.32698 21.7136 7.50702 21.7986 7.6819 21.8951C7.73093 21.9218 7.78057 21.9469 7.83063 21.9716C7.83063 21.9827 7.83063 21.9938 7.83063 22.0053C7.84451 22.0091 7.85838 22.0129 7.87267 22.0169C7.94425 22.0436 8.00354 22.0807 8.06745 22.1221C8.0908 22.137 8.11415 22.1519 8.13751 22.1667C8.14844 22.1738 8.15937 22.1808 8.17063 22.188C8.19682 22.2046 8.2234 22.2206 8.25006 22.2364C8.28476 22.2575 8.30728 22.2798 8.33584 22.3084C8.35355 22.3198 8.37126 22.3313 8.38951 22.3431C8.40514 22.3539 8.42077 22.3646 8.43688 22.3757C8.43688 22.3869 8.43688 22.398 8.43688 22.4094C8.46466 22.4205 8.49245 22.4316 8.52108 22.4431C8.52108 22.4542 8.52108 22.4653 8.52108 22.4768C8.53931 22.4825 8.53931 22.4825 8.55792 22.4884C8.61514 22.5151 8.64658 22.5485 8.68948 22.5947C8.70337 22.6086 8.71726 22.6224 8.73158 22.6368C8.75912 22.6643 8.78649 22.692 8.81367 22.7199C8.84821 22.7536 8.8826 22.7833 8.91998 22.8136C8.96897 22.8545 8.98854 22.8874 9.00944 22.9483C9.02611 22.9539 9.04278 22.9594 9.05996 22.9651C9.12732 23.0383 9.12732 23.0383 9.12732 23.0999C9.13843 23.0999 9.14955 23.0999 9.161 23.0999C9.24179 23.194 9.29961 23.303 9.35289 23.4142C9.37257 23.4551 9.39275 23.4953 9.4138 23.5354C9.6235 23.9371 9.65629 24.3606 9.6627 24.8067C9.66597 25.0295 9.67716 25.2433 9.73041 25.4606C9.73667 25.4877 9.73667 25.4877 9.74307 25.5153C9.82362 25.8546 9.96467 26.1853 10.1714 26.4679C10.1836 26.4847 10.1958 26.5015 10.2083 26.5189C10.27 26.603 10.3318 26.6816 10.4072 26.7542C10.4787 26.8238 10.5442 26.8975 10.6092 26.9731C10.6368 26.9226 10.652 26.8753 10.665 26.8194C10.7123 26.6244 10.7668 26.4314 10.8278 26.2402C10.8501 26.1699 10.8712 26.0994 10.8916 26.0285C10.8968 26.0105 10.9019 25.9925 10.9073 25.974C10.9175 25.9384 10.9276 25.9029 10.9377 25.8673C10.9633 25.7779 10.9934 25.6945 11.0302 25.609C11.0455 25.5596 11.0583 25.5096 11.0713 25.4596C11.0967 25.3647 11.1238 25.2753 11.1667 25.1866C11.188 25.141 11.2028 25.094 11.2181 25.0461C11.2488 24.9524 11.2831 24.8598 11.3165 24.767C11.3221 24.7514 11.3276 24.7357 11.3334 24.7196C11.3684 24.6217 11.4063 24.525 11.4453 24.4286C11.477 24.35 11.507 24.2708 11.5365 24.1913C11.5969 24.0291 11.6633 23.8707 11.7374 23.7142C11.7873 23.6082 11.8339 23.5009 11.8807 23.3935C11.9466 23.2426 12.0155 23.0945 12.0912 22.9483C12.1138 22.9035 12.1361 22.8585 12.1585 22.8136C12.169 22.7927 12.1794 22.7718 12.1898 22.751C12.195 22.7406 12.2002 22.7303 12.2055 22.7196C12.2167 22.6972 12.2279 22.6748 12.2391 22.6524C12.2689 22.593 12.2985 22.5335 12.3278 22.4739C12.3872 22.3533 12.4492 22.2361 12.5182 22.1207C12.5461 22.0722 12.5709 22.023 12.5953 21.9726C12.6402 21.881 12.692 21.7953 12.7462 21.7089C12.8056 21.6128 12.8609 21.5143 12.9163 21.4159C12.9275 21.4159 12.9386 21.4159 12.95 21.4159C12.95 21.3936 12.95 21.3714 12.95 21.3485C12.9611 21.3485 12.9722 21.3485 12.9837 21.3485C12.9883 21.3362 12.9929 21.324 12.9976 21.3114C13.0471 21.1933 13.1234 21.0867 13.1951 20.9811C13.227 20.933 13.2564 20.8836 13.2855 20.8338C13.2915 20.8258 13.2975 20.8178 13.3037 20.8096C13.3148 20.8096 13.3259 20.8096 13.3373 20.8096C13.3429 20.7818 13.3485 20.754 13.3542 20.7254C13.3653 20.7254 13.3764 20.7254 13.3879 20.7254C13.3917 20.7143 13.3955 20.7032 13.3994 20.6917C13.4281 20.6263 13.4619 20.5631 13.5057 20.5065C13.5169 20.5065 13.528 20.5065 13.5394 20.5065C13.5439 20.4943 13.5485 20.482 13.5531 20.4695C13.5729 20.4228 13.5957 20.3834 13.6236 20.3412C13.6323 20.3279 13.641 20.3146 13.6499 20.3009C13.6619 20.286 13.6619 20.286 13.6741 20.2707C13.6853 20.2707 13.6964 20.2707 13.7078 20.2707C13.7095 20.2611 13.7111 20.2515 13.7128 20.2417C13.7272 20.1953 13.749 20.1674 13.7794 20.1297C13.79 20.1165 13.8005 20.1033 13.8114 20.0896C13.8373 20.0582 13.8635 20.027 13.8899 19.996C13.9202 19.9588 13.9418 19.9273 13.9604 19.8834C13.9715 19.8834 13.9827 19.8834 13.9941 19.8834C13.9997 19.8612 14.0052 19.8389 14.0109 19.816C14.0221 19.816 14.0332 19.816 14.0446 19.816C14.049 19.8066 14.0534 19.7972 14.058 19.7876C14.0805 19.7444 14.1063 19.7055 14.1341 19.6655C14.1437 19.6515 14.1534 19.6374 14.1634 19.623C14.1962 19.5803 14.1962 19.5803 14.2367 19.54C14.2947 19.4817 14.3416 19.4171 14.3901 19.3509C14.4089 19.3257 14.4288 19.3014 14.4488 19.2772C14.4599 19.2772 14.471 19.2772 14.4825 19.2772C14.4866 19.2678 14.4908 19.2584 14.4951 19.2487C14.52 19.2027 14.5487 19.1647 14.5835 19.1256C14.5946 19.1256 14.6057 19.1256 14.6172 19.1256C14.6187 19.1115 14.6187 19.1115 14.6203 19.0972C14.6359 19.0529 14.6591 19.0318 14.6922 18.9996C14.7439 18.9488 14.7929 18.8954 14.8424 18.8425C14.8531 18.8311 14.8638 18.8198 14.8748 18.8081C14.9285 18.7508 14.9813 18.693 15.0327 18.6337C15.0765 18.5833 15.1218 18.5354 15.1697 18.4888C15.2106 18.4492 15.2422 18.4154 15.2739 18.3678C15.2851 18.3678 15.2962 18.3678 15.3076 18.3678C15.3121 18.357 15.3167 18.3463 15.3213 18.3352C15.3413 18.3004 15.3413 18.3004 15.3918 18.2836C15.4034 18.2613 15.4146 18.2388 15.4255 18.2162C15.4518 18.1904 15.4518 18.1904 15.4834 18.1647C15.5546 18.1049 15.6192 18.0401 15.6835 17.973C15.7035 17.9524 15.7244 17.9327 15.7455 17.9131C15.7566 17.9131 15.7677 17.9131 15.7791 17.9131C15.7847 17.8964 15.7903 17.8798 15.796 17.8626C15.8247 17.8331 15.8247 17.8331 15.8602 17.8026C15.8718 17.7925 15.8833 17.7824 15.8953 17.772C15.9284 17.7465 15.96 17.7282 15.9981 17.711C15.9981 17.6999 15.9981 17.6888 15.9981 17.6774C16.0246 17.6549 16.0246 17.6549 16.0602 17.63C16.1293 17.5799 16.1873 17.524 16.2454 17.4616C16.2675 17.4416 16.2675 17.4416 16.3012 17.4416C16.3012 17.4305 16.3012 17.4194 16.3012 17.4079C16.3147 17.4034 16.3283 17.3989 16.3422 17.3942C16.3565 17.3876 16.3707 17.381 16.3854 17.3742C16.3909 17.3576 16.3965 17.3409 16.4022 17.3237C16.4319 17.3001 16.4626 17.2778 16.4938 17.2564C16.5664 17.2064 16.5664 17.2064 16.6212 17.1385C16.6462 17.1301 16.6462 17.1301 16.6717 17.1216C16.6828 17.105 16.6939 17.0883 16.7054 17.0711C16.722 17.0711 16.7387 17.0711 16.7559 17.0711C16.7614 17.0544 16.767 17.0378 16.7727 17.0206C16.8137 16.9862 16.8137 16.9862 16.8643 16.9501C16.8809 16.938 16.8976 16.926 16.9147 16.9136C16.958 16.8859 16.958 16.8859 16.9916 16.8859C16.9972 16.8692 17.0027 16.8525 17.0085 16.8354C17.0335 16.827 17.0335 16.827 17.059 16.8185C17.0763 16.8021 17.0931 16.7852 17.1095 16.768C17.1482 16.7375 17.1884 16.7092 17.2284 16.6806C17.2446 16.6689 17.2446 16.6689 17.261 16.657C17.3412 16.5996 17.3412 16.5996 17.379 16.5996C17.3845 16.5829 17.3901 16.5662 17.3958 16.5491C17.4362 16.5201 17.4362 16.5201 17.4863 16.4901C17.5412 16.4571 17.5872 16.4267 17.6316 16.3807C17.6975 16.3404 17.7608 16.3061 17.8336 16.2796C17.8336 16.2685 17.8336 16.2574 17.8336 16.2459C17.8638 16.2223 17.8638 16.2223 17.9042 16.1965C17.9251 16.183 17.9251 16.183 17.9465 16.1692C17.9871 16.1437 18.0282 16.1191 18.0694 16.0944C18.0933 16.0783 18.1171 16.0622 18.141 16.046C18.2047 16.0031 18.27 15.9653 18.3376 15.9288C18.3696 15.9108 18.3993 15.8913 18.4294 15.8702C18.4736 15.8418 18.4736 15.8418 18.5241 15.8418C18.5241 15.8307 18.5241 15.8196 18.5241 15.8081C18.5333 15.8032 18.5424 15.7983 18.5519 15.7932C18.6361 15.7475 18.7151 15.6982 18.7928 15.642C18.8272 15.6229 18.8272 15.6229 18.8946 15.6229C18.8946 15.6118 18.8946 15.6006 18.8946 15.5892C19.1611 15.4416 19.4279 15.2951 19.7014 15.1608C19.8572 15.084 19.8572 15.084 19.8881 15.084Z" fill="#1B2B5E"/>
<path d="M15.173 0.113802C15.1992 0.119726 15.2255 0.125384 15.2519 0.130642C15.5735 0.200245 15.8577 0.361169 16.1329 0.534804C16.1425 0.540727 16.1521 0.546651 16.162 0.552754C16.1866 0.568321 16.2103 0.585151 16.2339 0.602164C16.2339 0.613279 16.2339 0.624393 16.2339 0.635844C16.2481 0.642031 16.2481 0.642031 16.2626 0.648343C16.4496 0.750782 16.6352 0.968063 16.7559 1.14105C16.7559 1.15772 16.7559 1.17439 16.7559 1.19157C16.7671 1.19157 16.7782 1.19157 16.7896 1.19157C16.857 1.30524 16.857 1.30524 16.857 1.34313C16.8681 1.34313 16.8792 1.34313 16.8907 1.34313C17.2163 1.98149 17.4138 2.68883 17.2106 3.39762C17.1474 3.58515 17.0504 3.75542 16.9412 3.91966C16.9295 3.93833 16.9177 3.957 16.9057 3.97623C16.8952 3.99091 16.8847 4.00558 16.8738 4.0207C16.8627 4.0207 16.8516 4.0207 16.8401 4.0207C16.8384 4.03112 16.8367 4.04154 16.8349 4.05227C16.8233 4.08806 16.8233 4.08806 16.7728 4.12174C16.7195 4.22553 16.7011 4.34559 16.7313 4.4588C16.7557 4.52239 16.7839 4.55644 16.8401 4.59326C16.8401 4.60438 16.8401 4.61549 16.8401 4.62694C16.8495 4.62868 16.8589 4.63041 16.8686 4.6322C16.9187 4.64712 16.9508 4.6609 16.9917 4.6943C17.0286 4.80496 17.0313 4.91094 17.0306 5.02689C17.0305 5.05386 17.0305 5.05386 17.0304 5.08137C17.0265 5.3292 16.9623 5.52249 16.7896 5.70471C16.7785 5.70471 16.7674 5.70471 16.7559 5.70471C16.7523 5.71458 16.7487 5.72446 16.745 5.73464C16.6781 5.84462 16.5054 5.90272 16.3855 5.94047C16.3698 5.94598 16.3542 5.95149 16.338 5.95718C16.1689 6.01404 15.992 6.04564 15.8129 6.04151C15.8129 6.05262 15.8129 6.06374 15.8129 6.07519C15.7729 6.11939 15.7729 6.11939 15.7287 6.15939C15.7176 6.15939 15.7065 6.15939 15.695 6.15939C15.6895 6.18162 15.6839 6.20385 15.6782 6.22675C15.6671 6.22675 15.656 6.22675 15.6445 6.22675C15.64 6.24203 15.6355 6.25731 15.6308 6.27306C15.6108 6.32779 15.6108 6.32779 15.5856 6.35831C15.5246 6.44726 15.5193 6.55791 15.5341 6.66216C15.5493 6.72059 15.5786 6.7653 15.6108 6.81615C15.6108 6.82727 15.6108 6.83838 15.6108 6.84983C15.6255 6.85667 15.6255 6.85667 15.6406 6.86365C15.678 6.88342 15.7083 6.90557 15.7413 6.93193C15.8269 6.99656 15.9125 7.03938 16.0131 7.07612C16.0249 7.08046 16.0368 7.0848 16.0491 7.08928C16.0729 7.09787 16.0968 7.1063 16.1207 7.11454C16.1922 7.14005 16.2433 7.16961 16.3013 7.22031C16.3169 7.22934 16.3325 7.23837 16.3486 7.24768C16.3608 7.25532 16.3729 7.26296 16.3855 7.27083C16.3855 7.28195 16.3855 7.29306 16.3855 7.30451C16.3945 7.30577 16.4036 7.30703 16.4129 7.30833C16.4679 7.32626 16.5081 7.35952 16.5528 7.39503C16.5624 7.40256 16.572 7.41008 16.5819 7.41784C16.8698 7.64523 17.1668 7.89243 17.3959 8.1802C17.3959 8.19131 17.3959 8.20243 17.3959 8.21388C17.4125 8.21943 17.4292 8.22499 17.4464 8.23072C17.4774 8.26661 17.5063 8.30244 17.5348 8.34018C17.5513 8.36169 17.5678 8.3832 17.5843 8.40471C17.5924 8.41525 17.6004 8.42579 17.6087 8.43665C17.6482 8.48799 17.6893 8.53807 17.7302 8.58824C17.7495 8.61804 17.7495 8.61804 17.7495 8.66856C17.7606 8.66856 17.7717 8.66856 17.7832 8.66856C17.805 8.69639 17.805 8.69638 17.8295 8.73487C17.8384 8.74878 17.8474 8.7627 17.8566 8.77703C17.8657 8.79125 17.8748 8.80547 17.8842 8.82012C17.901 8.84469 17.9179 8.86925 17.9348 8.8938C17.9825 8.96505 18.0231 9.03923 18.0628 9.11515C18.085 9.15723 18.085 9.15723 18.1145 9.19185C18.1368 9.22428 18.1368 9.22428 18.1368 9.29164C18.1479 9.29164 18.1591 9.29164 18.1705 9.29164C18.2323 9.41312 18.2917 9.53531 18.3482 9.65933C18.3682 9.70287 18.3884 9.74474 18.414 9.78533C18.4531 9.85335 18.4792 9.92579 18.5073 9.99892C18.5139 10.016 18.5206 10.033 18.5274 10.0506C18.5489 10.1059 18.5702 10.1614 18.5915 10.2168C18.6023 10.2447 18.6023 10.2447 18.6132 10.2731C18.7407 10.6045 18.7407 10.6045 18.7673 10.7193C18.7958 10.8327 18.8329 10.9443 18.8715 11.0546C18.8937 11.12 18.9068 11.1854 18.9194 11.2532C18.9282 11.295 18.9396 11.3348 18.9525 11.3756C18.9816 11.4698 19.002 11.5651 19.0216 11.6618C19.0303 11.7044 19.0393 11.747 19.0483 11.7896C19.1249 12.157 19.1891 12.5287 19.2237 12.9027C19.2288 12.9563 19.2353 13.0095 19.2428 13.0629C19.2944 13.4368 19.3109 13.8141 19.3298 14.1908C19.3324 14.2407 19.335 14.2907 19.3377 14.3407C19.3415 14.4145 19.3448 14.4883 19.3477 14.5621C19.3488 14.5889 19.35 14.6157 19.3514 14.6425C19.3532 14.6791 19.3545 14.7157 19.3556 14.7524C19.3565 14.7728 19.3573 14.7932 19.3581 14.8142C19.3493 14.8657 19.3493 14.8657 19.3098 14.9048C19.2489 14.9433 19.1863 14.9764 19.1224 15.0094C19.0836 15.032 19.0605 15.0533 19.0294 15.0846C19.0014 15.1008 18.9729 15.1162 18.9441 15.1309C18.8629 15.1741 18.7886 15.2223 18.7143 15.2764C18.6744 15.3045 18.6335 15.3292 18.5915 15.3541C18.5539 15.3778 18.5163 15.4016 18.4789 15.4256C18.4635 15.4355 18.4635 15.4355 18.4477 15.4456C18.3702 15.4955 18.2949 15.5481 18.2208 15.6031C18.1874 15.6235 18.1874 15.6235 18.1368 15.6235C18.1368 15.6346 18.1368 15.6457 18.1368 15.6572C18.103 15.6845 18.103 15.6845 18.0579 15.7151C18.0432 15.7251 18.0286 15.7352 18.0135 15.7455C17.9848 15.7644 17.9557 15.7826 17.9262 15.8002C17.866 15.8366 17.8099 15.8782 17.753 15.9195C17.7158 15.9435 17.7158 15.9435 17.6822 15.9435C17.6822 15.9546 17.6822 15.9657 17.6822 15.9772C17.6531 15.9976 17.6231 16.0167 17.5927 16.035C17.5373 16.0686 17.4918 16.0999 17.4464 16.1456C17.4183 16.1624 17.3903 16.1793 17.3622 16.1961C17.3158 16.2315 17.2699 16.2675 17.2244 16.3041C17.1824 16.3371 17.1452 16.3637 17.0954 16.3834C17.0774 16.3907 17.0774 16.3907 17.0591 16.3982C17.0535 16.4148 17.048 16.4315 17.0422 16.4487C17.0256 16.4487 17.0089 16.4487 16.9917 16.4487C16.9917 16.4598 16.9917 16.4709 16.9917 16.4824C16.9593 16.5098 16.927 16.5352 16.8928 16.5602C16.8834 16.5673 16.8741 16.5744 16.8644 16.5817C16.794 16.6339 16.794 16.6339 16.7559 16.6339C16.7504 16.6506 16.7448 16.6673 16.7391 16.6844C16.7224 16.6844 16.7058 16.6844 16.6886 16.6844C16.683 16.7011 16.6775 16.7178 16.6717 16.735C16.6418 16.76 16.6108 16.7837 16.5791 16.8065C16.5607 16.82 16.5422 16.8335 16.5238 16.847C16.5059 16.8601 16.4881 16.8731 16.4697 16.8865C16.4418 16.9074 16.4141 16.9285 16.3865 16.9497C16.3753 16.9583 16.364 16.9669 16.3524 16.9757C16.316 17.0052 16.316 17.0052 16.2776 17.0449C16.2334 17.0891 16.1875 17.1289 16.1392 17.1686C16.1233 17.1817 16.1075 17.1948 16.0912 17.2083C16.0487 17.2402 16.0487 17.2402 15.9981 17.257C15.9981 17.2681 15.9981 17.2792 15.9981 17.2907C15.9699 17.3143 15.9699 17.3143 15.9329 17.3401C15.8857 17.3732 15.8624 17.3932 15.8297 17.4422C15.8131 17.4478 15.7964 17.4534 15.7792 17.4591C15.7623 17.4814 15.7454 17.5039 15.7287 17.5264C15.7176 17.5264 15.7065 17.5264 15.695 17.5264C15.695 17.5376 15.695 17.5487 15.695 17.5601C15.6818 17.5643 15.6686 17.5685 15.655 17.5727C15.6093 17.5889 15.6093 17.5889 15.596 17.6243C15.5717 17.6717 15.5404 17.6978 15.5003 17.7327C15.4853 17.7459 15.4703 17.7591 15.4548 17.7727C15.4396 17.7859 15.4244 17.7991 15.4087 17.8127C15.3817 17.8365 15.3547 17.8604 15.3277 17.8843C15.3161 17.8944 15.3046 17.9046 15.2926 17.9151C15.2358 17.9669 15.1824 18.0221 15.1284 18.0768C14.9895 18.2171 14.9895 18.2171 14.9246 18.2706C14.8723 18.314 14.8298 18.3627 14.7859 18.4144C14.7455 18.4599 14.7027 18.5026 14.6594 18.5453C14.5953 18.6085 14.5344 18.6733 14.476 18.7418C14.4484 18.7731 14.4196 18.8023 14.3899 18.8315C14.3094 18.9108 14.2364 18.9961 14.1657 19.0841C14.1536 19.098 14.1414 19.1119 14.1289 19.1262C14.1178 19.1262 14.1067 19.1262 14.0952 19.1262C14.0942 19.1356 14.0931 19.145 14.0921 19.1547C14.0727 19.2099 14.0362 19.2377 13.9942 19.2778C13.982 19.2934 13.9699 19.3091 13.9573 19.3252C13.9422 19.3434 13.9422 19.3434 13.9268 19.362C13.9157 19.362 13.9046 19.362 13.8931 19.362C13.8888 19.3715 13.8844 19.3809 13.88 19.3907C13.8571 19.4339 13.8304 19.4707 13.8005 19.5094C13.7903 19.5228 13.78 19.5363 13.7695 19.5501C13.7603 19.5603 13.7511 19.5705 13.7416 19.5809C13.7305 19.5809 13.7193 19.5809 13.7079 19.5809C13.6968 19.6087 13.6857 19.6365 13.6742 19.6651C13.6631 19.6651 13.652 19.6651 13.6405 19.6651C13.6388 19.6752 13.6371 19.6853 13.6353 19.6956C13.6221 19.7377 13.6052 19.7537 13.5732 19.783C13.5676 19.7941 13.5621 19.8052 13.5563 19.8167C13.5452 19.8167 13.5341 19.8167 13.5227 19.8167C13.5164 19.8308 13.5164 19.8308 13.51 19.8451C13.4767 19.9068 13.4305 19.9576 13.3858 20.0114C13.3586 20.0468 13.3386 20.0791 13.3206 20.1198C13.3095 20.1198 13.2983 20.1198 13.2869 20.1198C13.2824 20.1323 13.2779 20.1448 13.2732 20.1577C13.254 20.2022 13.2348 20.2353 13.2027 20.2714C13.1916 20.2714 13.1805 20.2714 13.169 20.2714C13.1678 20.2804 13.1666 20.2893 13.1653 20.2986C13.147 20.3546 13.1123 20.3961 13.0764 20.4419C13.0256 20.5053 13.0256 20.5053 12.9838 20.5745C12.9727 20.5745 12.9615 20.5745 12.9501 20.5745C12.948 20.5844 12.9459 20.5943 12.9438 20.6045C12.927 20.6639 12.8918 20.7127 12.8585 20.7639C12.8516 20.7749 12.8448 20.7858 12.8377 20.7971C12.82 20.8246 12.8009 20.8512 12.7817 20.8776C12.7706 20.8776 12.7595 20.8776 12.748 20.8776C12.7436 20.8896 12.7392 20.9017 12.7347 20.9141C12.7134 20.964 12.688 21.0068 12.6585 21.0523C12.6428 21.0768 12.6428 21.0767 12.6267 21.1017C12.603 21.1372 12.5788 21.1717 12.5533 21.206C12.4902 21.2921 12.442 21.3886 12.3944 21.4839C12.3833 21.4839 12.3721 21.4839 12.3607 21.4839C12.3572 21.4971 12.3537 21.5103 12.3502 21.5239C12.3187 21.6069 12.2727 21.6781 12.226 21.7533C12.208 21.7827 12.1901 21.8122 12.1723 21.8417C12.1644 21.8546 12.1565 21.8676 12.1484 21.8809C12.1217 21.9273 12.0982 21.9748 12.0744 22.0227C12.0511 22.0671 12.0275 22.1112 12.0039 22.1554C11.9465 22.2632 11.8909 22.3719 11.8368 22.4815C11.8008 22.5541 11.7629 22.6253 11.7239 22.6963C11.688 22.7623 11.6575 22.826 11.6333 22.897C11.6154 22.9434 11.5929 22.9868 11.5703 23.031C11.5318 23.1065 11.4983 23.182 11.468 23.261C11.4507 23.3042 11.4313 23.3458 11.4113 23.3878C11.3689 23.4798 11.3356 23.5741 11.3025 23.6697C11.2757 23.747 11.2474 23.8233 11.2164 23.899C11.1475 24.0688 11.0857 24.2407 11.0265 24.414C11.0136 24.4517 11.0006 24.4893 10.9876 24.5268C10.9214 24.7191 10.8588 24.9128 10.8099 25.1103C10.7983 25.1568 10.7856 25.2006 10.7693 25.2455C10.7519 25.2961 10.7389 25.3454 10.7292 25.3981C10.708 25.5073 10.68 25.6146 10.6525 25.7223C10.611 25.8861 10.5717 26.0495 10.542 26.2159C10.5253 26.2159 10.5086 26.2159 10.4914 26.2159C10.4276 26.1361 10.3893 26.0442 10.3493 25.9507C10.3427 25.9351 10.3361 25.9196 10.3292 25.9036C10.2731 25.7691 10.2325 25.6335 10.1972 25.4924C10.1835 25.4394 10.1673 25.3873 10.1515 25.335C10.1252 25.2437 10.1079 25.1536 10.0956 25.0595C10.0889 25.0146 10.0805 24.9713 10.0709 24.927C10.0526 24.8364 10.0444 24.7466 10.0379 24.6545C10.0353 24.6204 10.0326 24.5863 10.03 24.5523C10.026 24.4994 10.022 24.4465 10.0182 24.3935C10.0145 24.3419 10.0105 24.2903 10.0064 24.2387C10.0053 24.2231 10.0043 24.2075 10.0033 24.1913C9.99453 24.0854 9.96734 24.003 9.91887 23.9088C9.90799 23.8864 9.89711 23.8639 9.88625 23.8415C9.84264 23.7554 9.79583 23.6711 9.74699 23.5879C9.69995 23.5078 9.69995 23.5078 9.69995 23.471C9.68884 23.471 9.67773 23.471 9.66627 23.471C9.65957 23.4582 9.65286 23.4454 9.64595 23.4322C9.63703 23.4155 9.6281 23.3988 9.61891 23.3815C9.61012 23.3649 9.60133 23.3483 9.59227 23.3312C9.56854 23.2913 9.54729 23.2671 9.51471 23.2352C9.49754 23.2074 9.48072 23.1793 9.46419 23.151C9.43334 23.107 9.40188 23.0634 9.37032 23.0198C9.34631 22.9826 9.34631 22.9826 9.34631 22.9489C9.32964 22.9434 9.31297 22.9378 9.29579 22.9321C9.29018 22.9096 9.28457 22.8872 9.27895 22.8647C9.26228 22.8592 9.24561 22.8536 9.22843 22.8479C9.226 22.8371 9.22357 22.8264 9.22106 22.8153C9.21794 22.8038 9.21481 22.7924 9.21159 22.7805C9.20165 22.7759 9.19171 22.7713 9.18146 22.7666C9.1333 22.7411 9.11072 22.7091 9.07792 22.6658C9.01469 22.5845 8.94976 22.5137 8.86953 22.449C8.85459 22.4362 8.83966 22.4233 8.82427 22.4101C8.82427 22.3989 8.82427 22.3878 8.82427 22.3764C8.81007 22.3701 8.81007 22.3701 8.79559 22.3637C8.75033 22.3391 8.71541 22.3096 8.67692 22.2753C8.66346 22.2635 8.65 22.2517 8.63613 22.2396C8.60535 22.208 8.60535 22.208 8.60535 22.1743C8.59458 22.1726 8.58381 22.1708 8.57272 22.169C8.56126 22.1652 8.5498 22.1614 8.53799 22.1575C8.53243 22.1408 8.52687 22.1241 8.52115 22.1069C8.48721 22.0946 8.48721 22.0946 8.45379 22.0901C8.45379 22.079 8.45379 22.0679 8.45379 22.0564C8.43546 22.0496 8.43546 22.0496 8.41675 22.0427C8.37012 22.023 8.3307 22.0002 8.28855 21.9722C8.27524 21.9635 8.26193 21.9549 8.24822 21.9459C8.23328 21.9339 8.23328 21.9339 8.21803 21.9217C8.21803 21.9106 8.21803 21.8995 8.21803 21.888C8.2062 21.8837 8.19437 21.8794 8.18218 21.875C8.12888 21.8522 8.0828 21.8243 8.03384 21.7933C7.95358 21.7431 7.87275 21.6942 7.79071 21.647C7.7629 21.6309 7.7629 21.6309 7.73453 21.6146C7.67757 21.5841 7.62094 21.5591 7.56126 21.5344C7.53843 21.5243 7.51563 21.5141 7.49285 21.5039C7.42568 21.4739 7.35828 21.4446 7.29077 21.4154C7.27182 21.4073 7.25287 21.3991 7.23334 21.3906C6.95793 21.2763 6.65658 21.1614 6.36141 21.1155C5.9643 21.0492 5.45758 20.8444 5.20365 20.524C5.18828 20.5063 5.18828 20.5063 5.17261 20.4883C5.04034 20.331 5.00596 20.1695 5.00789 19.9672C5.00799 19.9473 5.0081 19.9275 5.0082 19.907C5.01346 19.6901 5.06857 19.4956 5.18385 19.3102C5.19365 19.2941 5.19365 19.2942 5.20365 19.2778C5.21308 19.2631 5.2225 19.2484 5.2322 19.2333C5.26213 19.1563 5.2517 19.0983 5.24049 19.0178C5.20376 18.7016 5.17408 18.3166 5.29272 18.0135C5.30561 17.9786 5.31257 17.945 5.31943 17.9085C5.36251 17.7086 5.47177 17.5324 5.57414 17.358C5.58314 17.3425 5.59215 17.327 5.60144 17.3109C5.6193 17.281 5.63861 17.252 5.65834 17.2233C5.66945 17.2233 5.68056 17.2233 5.69202 17.2233C5.70869 17.1816 5.70869 17.1816 5.7257 17.1391C5.73681 17.1391 5.74793 17.1391 5.75938 17.1391C5.76094 17.125 5.76094 17.125 5.76253 17.1107C5.79432 17.0202 5.89247 16.9587 5.96369 16.8974C5.99529 16.8704 5.99529 16.8704 6.02237 16.8409C6.04566 16.8192 6.04566 16.8192 6.07934 16.8192C6.0849 16.8025 6.09045 16.7858 6.09618 16.7686C6.11285 16.7631 6.12952 16.7575 6.1467 16.7518C6.16934 16.7295 6.19177 16.7071 6.21406 16.6844C6.39771 16.5549 6.62228 16.4462 6.83714 16.3813C6.84734 16.3777 6.85754 16.3741 6.86804 16.3704C7.35381 16.2025 7.96919 16.2541 8.43695 16.4487C8.43867 16.4372 8.44038 16.4258 8.44215 16.414C8.46076 16.294 8.49482 16.1807 8.532 16.0654C8.55496 15.9943 8.5761 15.9227 8.59693 15.8509C8.63014 15.7368 8.66512 15.6234 8.70119 15.5102C8.7264 15.4294 8.74923 15.3479 8.77237 15.2665C8.80296 15.1591 8.83416 15.0519 8.86532 14.9446C8.86863 14.9332 8.87194 14.9218 8.87536 14.9101C8.92533 14.738 8.9756 14.566 9.02635 14.3942C9.06609 14.2596 9.10582 14.125 9.14423 13.99C9.16873 13.9039 9.19368 13.818 9.21896 13.7322C9.22247 13.7202 9.22599 13.7083 9.22961 13.696C9.24777 13.6343 9.26602 13.5727 9.28441 13.5111C9.31532 13.4073 9.34601 13.3038 9.37157 13.1985C9.39369 13.1075 9.41973 13.0178 9.44645 12.928C9.47655 12.8268 9.50578 12.7254 9.53471 12.6239C9.53892 12.6091 9.54313 12.5944 9.54746 12.5791C9.55349 12.558 9.55349 12.558 9.55964 12.5364C9.56357 12.5228 9.56749 12.5092 9.57154 12.4952C9.58053 12.4631 9.58845 12.4306 9.59615 12.3982C9.62273 12.3189 9.66395 12.252 9.70732 12.1808C9.7662 12.0838 9.8138 11.992 9.85151 11.885C9.86468 11.8577 9.87829 11.8307 9.89256 11.804C9.93759 11.7154 9.97114 11.6254 10.0031 11.5314C10.0112 11.5082 10.0193 11.4849 10.0273 11.4617C10.1111 11.219 10.17 10.9764 10.2167 10.7241C10.2203 10.7051 10.224 10.686 10.2277 10.6664C10.2726 10.4154 10.2757 10.1626 10.2756 9.90827C10.2757 9.86534 10.276 9.82243 10.2763 9.77951C10.2768 9.61399 10.2676 9.45277 10.2465 9.28858C10.2358 9.19883 10.2337 9.11234 10.2388 9.0222C10.2397 9.00581 10.2397 9.00581 10.2407 8.9891C10.262 8.64768 10.3793 8.3002 10.5925 8.02864C10.6146 8.01671 10.637 8.00532 10.6598 7.99496C10.664 7.9828 10.6682 7.97064 10.6725 7.95812C10.7215 7.84788 10.8494 7.77502 10.9432 7.70322C10.9693 7.68308 10.9949 7.66228 11.0202 7.64105C11.0663 7.60587 11.1118 7.58125 11.164 7.55606C11.1808 7.54788 11.1976 7.53969 11.215 7.53126C11.2403 7.51905 11.2403 7.51905 11.2661 7.50659C11.2811 7.49868 11.2962 7.49076 11.3116 7.4826C11.5696 7.35927 11.83 7.36129 12.1102 7.36661C12.1494 7.36703 12.1886 7.36742 12.2277 7.36776C12.3226 7.36868 12.4174 7.37008 12.5122 7.37187C12.4828 7.34507 12.4534 7.31828 12.424 7.29149C12.4076 7.27657 12.3912 7.26165 12.3743 7.24627C12.3357 7.21131 12.2968 7.17669 12.2575 7.14243C12.2471 7.13329 12.2366 7.12415 12.2258 7.11473C12.2007 7.09294 12.1756 7.07125 12.1503 7.04961C12.1364 7.03752 12.1224 7.02543 12.1081 7.01297C12.0888 6.9964 12.0888 6.9964 12.0691 6.97949C12.0407 6.95087 12.0407 6.95087 12.0407 6.91719C12.0314 6.91337 12.0221 6.90955 12.0126 6.90561C11.9618 6.87699 11.926 6.8406 11.885 6.79931C11.8699 6.78438 11.8549 6.76944 11.8394 6.75405C11.805 6.71511 11.805 6.71511 11.805 6.68143C11.7883 6.67587 11.7716 6.67032 11.7544 6.66459C11.7292 6.63676 11.7051 6.6078 11.6818 6.57829C11.6367 6.52154 11.5914 6.46583 11.5429 6.41199C11.5018 6.36147 11.5018 6.36147 11.5018 6.31095C11.4852 6.30539 11.4685 6.29983 11.4513 6.29411C11.2673 6.06462 11.278 5.69942 11.3077 5.42191C11.3386 5.17704 11.4145 4.9348 11.5524 4.72798C11.5557 4.67785 11.5571 4.62968 11.5566 4.57958C11.5565 4.56523 11.5564 4.55088 11.5563 4.53609C11.5544 4.41273 11.5417 4.29353 11.5187 4.17226C11.5138 4.14452 11.5138 4.14452 11.5087 4.11621C11.4746 3.94586 11.4049 3.78909 11.2998 3.65022C11.2886 3.64466 11.2775 3.6391 11.2661 3.63338C11.2661 3.62226 11.2661 3.61115 11.2661 3.5997C11.2543 3.59553 11.2425 3.59136 11.2303 3.58707C11.1819 3.56602 11.1819 3.56602 11.1363 3.53326C11.0767 3.4961 11.0211 3.47812 10.9535 3.46287C10.9418 3.46009 10.9301 3.4573 10.918 3.45443C10.8258 3.43306 10.733 3.41715 10.6391 3.40426C10.5951 3.39799 10.5518 3.38993 10.5083 3.38078C10.5187 3.3238 10.5398 3.28782 10.5746 3.24185C10.5834 3.22995 10.5923 3.21805 10.6014 3.2058C10.6136 3.19238 10.6136 3.19238 10.6262 3.1787C10.6373 3.1787 10.6484 3.1787 10.6598 3.1787C10.6636 3.16971 10.6674 3.16072 10.6713 3.15146C10.7009 3.09799 10.7399 3.05406 10.7798 3.00819C10.8515 2.92501 10.9205 2.84041 10.9872 2.75315C10.9959 2.74354 11.0046 2.73392 11.0135 2.72401C11.0246 2.72401 11.0357 2.72401 11.0472 2.72401C11.0489 2.71325 11.0506 2.70248 11.0524 2.69139C11.0562 2.67992 11.0601 2.66846 11.064 2.65665C11.0807 2.6511 11.0973 2.64554 11.1145 2.63981C11.1208 2.61753 11.1264 2.59506 11.1314 2.57245C11.1425 2.5669 11.1536 2.56134 11.165 2.55561C11.1766 2.51846 11.1864 2.4808 11.1956 2.44299C11.2537 2.21231 11.3414 1.99724 11.4488 1.78557C11.4638 1.75586 11.4782 1.72585 11.4924 1.69572C11.5221 1.63988 11.5562 1.58868 11.5918 1.53646C11.6208 1.49302 11.6481 1.4487 11.6755 1.40417C11.7604 1.27021 11.8604 1.15103 11.9734 1.04001C11.9855 1.02772 11.9975 1.01543 12.01 1.00277C12.0817 0.930186 12.1547 0.860589 12.2322 0.794312C12.2533 0.776016 12.2736 0.756651 12.2933 0.736885C12.31 0.736885 12.3267 0.736885 12.3438 0.736885C12.347 0.727507 12.3501 0.718129 12.3533 0.708467C12.404 0.627009 12.4989 0.582862 12.5796 0.534804C12.6042 0.517997 12.6287 0.501154 12.6533 0.484284C12.7165 0.441955 12.7784 0.411971 12.849 0.383243C12.8764 0.368523 12.9038 0.353785 12.9311 0.339038C13.6031 0.00181493 14.4483 -0.104155 15.173 0.113802Z" fill="#96BFE2"/>
<path d="M19.6187 16.2461C19.6885 16.2741 19.7377 16.3246 19.7913 16.3756C19.8108 16.3939 19.8304 16.4122 19.8499 16.4305C19.8594 16.4394 19.8688 16.4482 19.8785 16.4574C19.9122 16.4885 19.9469 16.5184 19.9818 16.5482C20.0297 16.5895 20.0697 16.6326 20.1071 16.6839C20.0427 16.7498 19.9782 16.8146 19.9082 16.8744C19.8396 16.9331 19.7768 16.9968 19.7144 17.0619C19.6943 17.0825 19.6734 17.1022 19.6524 17.1218C19.6413 17.1218 19.6302 17.1218 19.6187 17.1218C19.6132 17.1384 19.6076 17.1551 19.6019 17.1723C19.5749 17.1989 19.5749 17.1989 19.5409 17.2271C19.4737 17.2842 19.4108 17.3441 19.3486 17.4065C19.3376 17.4175 19.3266 17.4285 19.3153 17.4398C19.2794 17.4756 19.2435 17.5115 19.2076 17.5475C19.1824 17.5726 19.1572 17.5978 19.132 17.623C19.0794 17.6756 19.0268 17.7283 18.9742 17.7809C18.9071 17.8481 18.8399 17.9153 18.7726 17.9824C18.7206 18.0344 18.6687 18.0863 18.6167 18.1383C18.592 18.1631 18.5672 18.1879 18.5424 18.2126C18.5077 18.2473 18.473 18.282 18.4384 18.3168C18.4283 18.3268 18.4182 18.3368 18.4079 18.3472C18.3457 18.4096 18.2869 18.4743 18.2294 18.541C18.2002 18.5746 18.1696 18.6062 18.1378 18.6374C18.121 18.6541 18.121 18.6541 18.1038 18.6711C18.0809 18.6935 18.058 18.716 18.0351 18.7384C17.9692 18.8036 17.9067 18.8703 17.8462 18.9405C17.7858 19.0098 17.7218 19.0759 17.6586 19.1426C17.5958 19.2091 17.5348 19.2768 17.4748 19.3459C17.4307 19.3961 17.3848 19.4445 17.339 19.4931C17.2605 19.5768 17.1866 19.6628 17.1149 19.7524C17.053 19.8269 16.9866 19.8971 16.9206 19.9679C16.8076 20.0892 16.7017 20.2166 16.5949 20.3432C16.5637 20.3802 16.5324 20.4172 16.501 20.4542C16.4857 20.4724 16.4703 20.4906 16.4549 20.5088C16.4164 20.5543 16.3779 20.5997 16.3391 20.645C16.252 20.7469 16.1678 20.8504 16.0856 20.9562C16.0303 21.0271 15.9728 21.0956 15.9139 21.1634C15.8233 21.2679 15.7373 21.3753 15.6527 21.4847C15.6258 21.5194 15.5989 21.554 15.5719 21.5886C15.5322 21.6396 15.4925 21.6906 15.4528 21.7417C15.412 21.7942 15.3712 21.8467 15.3303 21.8992C15.281 21.9626 15.2317 22.026 15.1824 22.0895C15.166 22.1105 15.1496 22.1316 15.1332 22.1526C15.0135 22.3065 14.8979 22.4633 14.7826 22.6205C14.7525 22.6614 14.7223 22.7023 14.6921 22.7431C14.5593 22.923 14.4277 23.1037 14.2973 23.2852C14.29 23.2954 14.2827 23.3055 14.2752 23.3159C14.1085 23.5477 13.9431 23.7805 13.7857 24.0187C13.7346 24.0958 13.6825 24.1722 13.63 24.2483C13.5067 24.427 13.3874 24.6081 13.2697 24.7905C13.2353 24.8438 13.2008 24.897 13.1661 24.9502C12.995 25.2125 12.8273 25.4768 12.6638 25.7439C12.6417 25.7797 12.6196 25.8155 12.5975 25.8513C12.5296 25.9615 12.463 26.0724 12.3966 26.1834C12.3778 26.2148 12.359 26.2462 12.3401 26.2775C12.2657 26.4011 12.1922 26.5252 12.1193 26.6497C12.0664 26.7399 12.0119 26.8289 11.9562 26.9173C11.9188 26.9799 11.8841 27.0437 11.8493 27.1078C11.8019 27.1949 11.7534 27.2814 11.7049 27.3679C11.6902 27.3942 11.6902 27.3942 11.6752 27.4211C11.6254 27.51 11.575 27.5985 11.5233 27.6864C11.4823 27.7563 11.4443 27.8263 11.4092 27.8994C11.3724 27.9742 11.334 28.0467 11.2913 28.1183C11.2388 28.2068 11.1926 28.2973 11.1472 28.3895C11.0406 28.6049 10.9247 28.8158 10.8114 29.0277C10.7419 29 10.6936 28.95 10.641 28.8985C10.6314 28.8891 10.6217 28.8797 10.6118 28.8699C10.5914 28.85 10.5712 28.83 10.5509 28.81C10.5199 28.7794 10.4885 28.7492 10.457 28.7191C10.4373 28.6996 10.4176 28.6801 10.3979 28.6607C10.3885 28.6517 10.379 28.6428 10.3693 28.6335C10.3434 28.6073 10.3434 28.6073 10.3062 28.5562C10.3079 28.4743 10.3402 28.4135 10.3777 28.3415C10.383 28.3312 10.3883 28.3209 10.3938 28.3102C10.4094 28.2799 10.4251 28.2496 10.4409 28.2194C10.4826 28.1384 10.523 28.0583 10.5556 27.9731C10.5883 27.8893 10.628 27.8096 10.6687 27.7295C10.721 27.6262 10.771 27.5219 10.8208 27.4174C10.9834 27.0772 11.1518 26.74 11.3289 26.4073C11.3614 26.3459 11.3933 26.2841 11.4252 26.2225C11.5057 26.0674 11.5878 25.9136 11.6734 25.7613C11.7102 25.6955 11.7466 25.6295 11.7828 25.5634C11.9184 25.3161 12.0567 25.0708 12.2 24.8279C12.2237 24.7877 12.2474 24.7475 12.2709 24.7072C12.5154 24.2896 12.7646 23.8742 13.0298 23.4694C13.051 23.4369 13.072 23.4044 13.0929 23.3717C13.3002 23.0489 13.5144 22.7303 13.732 22.4143C13.76 22.3735 13.7879 22.3326 13.8157 22.2917C13.9124 22.1497 14.0098 22.0087 14.112 21.8707C14.1298 21.8464 14.1477 21.8221 14.1655 21.7979C14.2844 21.636 14.4042 21.4748 14.525 21.3144C14.5505 21.2804 14.576 21.2464 14.6014 21.2123C14.6997 21.0809 14.7985 20.9499 14.8992 20.8202C14.9136 20.8016 14.928 20.783 14.9423 20.7644C15.112 20.5447 15.2909 20.3361 15.4827 20.1353C15.5347 20.0807 15.5854 20.0258 15.6335 19.9677C15.6483 19.951 15.663 19.9344 15.6781 19.9172C15.6893 19.9172 15.7004 19.9172 15.7118 19.9172C15.7174 19.9033 15.7174 19.9033 15.7232 19.8891C15.7525 19.8376 15.7903 19.8026 15.8329 19.7615C15.8985 19.6973 15.9608 19.6317 16.0204 19.5618C16.0603 19.5167 16.1032 19.4749 16.1465 19.4331C16.1779 19.4008 16.2072 19.3678 16.2365 19.3336C16.3202 19.2372 16.4119 19.149 16.5028 19.0595C16.5164 19.0461 16.5299 19.0327 16.5438 19.0189C16.5619 19.0012 16.5619 19.0012 16.5803 18.983C16.6127 18.9494 16.6431 18.9153 16.6735 18.8799C16.7523 18.7891 16.8376 18.7048 16.9227 18.62C16.9403 18.6023 16.9579 18.5847 16.9756 18.567C17.0123 18.5302 17.0491 18.4935 17.0859 18.4567C17.1327 18.41 17.1795 18.3632 17.2263 18.3163C17.2626 18.2799 17.299 18.2436 17.3353 18.2072C17.3526 18.19 17.3698 18.1728 17.387 18.1555C17.4734 18.069 17.5601 17.9838 17.6533 17.9047C17.7049 17.8597 17.7522 17.8105 17.8 17.7617C17.8732 17.6876 17.9469 17.6156 18.0265 17.5484C18.0558 17.5238 18.0558 17.5238 18.0926 17.4849C18.1199 17.4586 18.1199 17.4586 18.1536 17.4586C18.1536 17.4475 18.1536 17.4364 18.1536 17.4249C18.176 17.4023 18.176 17.4023 18.2084 17.3754C18.2602 17.3314 18.3109 17.2866 18.3607 17.2403C18.4469 17.1601 18.5351 17.084 18.6268 17.0101C18.6822 16.9649 18.7363 16.9181 18.7904 16.8713C18.9064 16.7713 19.0256 16.676 19.1472 16.5829C19.1582 16.5745 19.1692 16.566 19.1805 16.5573C19.3233 16.4482 19.4675 16.3434 19.6187 16.2461Z" fill="black"/>
<path d="M3.75211 20.2587C3.76917 20.2687 3.78624 20.2788 3.80382 20.2891C3.81357 20.2948 3.82333 20.3005 3.83339 20.3064C4.08095 20.4531 4.32503 20.6068 4.56291 20.7687C4.60335 20.7962 4.64389 20.8236 4.68443 20.8509C5.05539 21.1019 5.41432 21.3654 5.75937 21.651C5.78953 21.6756 5.81971 21.7002 5.84988 21.7247C6.00968 21.8556 6.16656 21.9888 6.31812 22.1292C6.36061 22.1685 6.4035 22.2072 6.44665 22.2457C6.89094 22.6451 6.89094 22.6451 7.07224 22.8581C7.12168 22.9144 7.17315 22.9688 7.22446 23.0235C7.3047 23.1092 7.38416 23.1951 7.46022 23.2845C7.47396 23.3005 7.4877 23.3165 7.50186 23.3329C7.7458 23.6177 7.97377 23.9173 8.18434 24.2276C8.19665 24.2457 8.20896 24.2638 8.22164 24.2825C8.4948 24.6873 8.73705 25.1061 8.95898 25.5411C8.96594 25.5547 8.9729 25.5684 8.98007 25.5824C8.99874 25.6191 9.01731 25.6559 9.03582 25.6926C9.04104 25.703 9.04627 25.7134 9.05165 25.7241C9.08508 25.7912 9.11499 25.8594 9.14422 25.9284C9.15781 25.9583 9.17149 25.9881 9.18527 26.0179C9.22495 26.1049 9.26115 26.1929 9.29578 26.2821C9.30506 26.3055 9.30506 26.3055 9.31453 26.3294C9.42551 26.6128 9.52099 26.9023 9.61575 27.1914C9.62207 27.2106 9.62207 27.2106 9.62853 27.2301C9.66923 27.3539 9.70536 27.4752 9.726 27.6042C9.7361 27.6597 9.75273 27.7121 9.76954 27.7658C9.78851 27.8291 9.80552 27.8927 9.82204 27.9566C9.82519 27.9684 9.82835 27.9801 9.8316 27.9923C9.84595 28.0486 9.85343 28.0782 9.83467 28.1345C9.82952 28.1249 9.82436 28.1154 9.81906 28.1055C9.47884 27.476 9.10187 26.8838 8.64415 26.3325C8.60004 26.2794 8.55682 26.2256 8.51377 26.1715C8.43909 26.0799 8.35824 25.9943 8.2768 25.9087C8.26656 25.898 8.25633 25.8872 8.24578 25.8761C8.23228 25.862 8.23228 25.862 8.2185 25.8476C8.18809 25.8146 8.1587 25.781 8.12935 25.747C8.06939 25.6783 8.00638 25.6133 7.9418 25.5489C7.93033 25.5374 7.91885 25.5259 7.90703 25.5141C7.88295 25.49 7.85885 25.4659 7.83473 25.4419C7.79816 25.4054 7.76169 25.3688 7.72522 25.3323C7.70164 25.3087 7.67806 25.2851 7.65447 25.2616C7.63839 25.2454 7.63839 25.2454 7.62198 25.229C7.5577 25.165 7.49154 25.1042 7.42283 25.045C7.37921 25.0072 7.3372 24.9679 7.29497 24.9285C7.2158 24.8553 7.13398 24.7864 7.04994 24.7188C7.00681 24.6833 6.9656 24.6464 6.92449 24.6086C6.84984 24.5405 6.77175 24.4784 6.69196 24.4166C6.62437 24.3641 6.55883 24.3098 6.49402 24.2539C6.37171 24.149 6.24277 24.0535 6.11301 23.9581C6.09134 23.9421 6.06968 23.9261 6.04802 23.9101C5.91837 23.8145 5.78777 23.7202 5.65639 23.627C5.63417 23.6112 5.61195 23.5955 5.58975 23.5797C5.44012 23.4732 5.28959 23.3688 5.13629 23.2677C5.11619 23.2543 5.09611 23.2408 5.07603 23.2274C4.6965 22.973 4.30913 22.731 3.91469 22.5005C3.87719 22.4785 3.83982 22.4563 3.8025 22.434C3.59919 22.3128 3.392 22.1987 3.18484 22.0843C3.13998 22.0594 3.09523 22.0344 3.05055 22.0093C2.87266 21.9092 2.69213 21.8147 2.51081 21.721C2.43597 21.6823 2.36138 21.6432 2.28698 21.6037C2.07675 21.4921 1.8636 21.3863 1.65039 21.2805C1.65039 21.2639 1.65039 21.2472 1.65039 21.23C1.65974 21.2283 1.66909 21.2265 1.67872 21.2247C1.80707 21.1998 1.93387 21.1694 2.06087 21.1385C2.08171 21.1334 2.10255 21.1284 2.12402 21.1232C2.25256 21.092 2.38093 21.0601 2.50923 21.0279C2.55901 21.0155 2.60882 21.0032 2.65869 20.9911C2.67653 20.9866 2.67653 20.9866 2.69474 20.9821C2.85766 20.9428 2.85766 20.9428 2.93978 20.9803C2.96117 20.9941 2.96117 20.9941 2.98299 21.0081C2.99916 21.0184 3.01533 21.0287 3.03199 21.0393C3.04912 21.0505 3.06625 21.0617 3.0839 21.0732C3.10189 21.0847 3.11988 21.0962 3.13841 21.1081C3.19266 21.1429 3.24669 21.178 3.30072 21.2132C3.32919 21.2315 3.35767 21.2498 3.38617 21.2681C3.78512 21.5247 4.18034 21.7884 4.56521 22.0657C4.6007 22.0912 4.63625 22.1167 4.6718 22.1422C4.82325 22.2508 4.97239 22.3617 5.11945 22.4762C5.1573 22.5054 5.19521 22.5345 5.23312 22.5636C5.31895 22.6296 5.40459 22.6958 5.48993 22.7625C5.50271 22.7724 5.50271 22.7724 5.51576 22.7825C5.63444 22.8746 5.75139 22.9682 5.86561 23.0658C5.92321 23.115 5.98148 23.1632 6.04039 23.2108C6.1154 23.2719 6.1876 23.3354 6.25911 23.4006C6.29354 23.4318 6.32836 23.4625 6.36351 23.4929C6.43274 23.5531 6.50002 23.6153 6.56709 23.6779C6.61422 23.7221 6.61422 23.7221 6.66873 23.756C6.66873 23.7672 6.66873 23.7783 6.66873 23.7897C6.68328 23.7961 6.68328 23.7961 6.69812 23.8025C6.74111 23.8262 6.77 23.853 6.80472 23.8877C6.82471 23.9075 6.82471 23.9075 6.84511 23.9277C6.85939 23.9421 6.87367 23.9564 6.88838 23.9712C6.90325 23.9861 6.91812 24.0009 6.93344 24.0162C6.96495 24.0477 6.99642 24.0792 7.02784 24.1108C7.05975 24.1428 7.09174 24.1748 7.12381 24.2067C7.17032 24.253 7.21671 24.2994 7.26307 24.3459C7.28423 24.367 7.28423 24.367 7.30582 24.3885C7.40364 24.487 7.49191 24.5902 7.5781 24.6991C7.51683 24.6038 7.45194 24.5139 7.38036 24.4262C7.35281 24.3921 7.32576 24.3579 7.29905 24.3231C7.20869 24.2059 7.11493 24.0944 7.01382 23.9863C6.97875 23.9487 6.94451 23.9106 6.91081 23.8718C6.81423 23.7607 6.71686 23.651 6.61163 23.548C6.58446 23.5202 6.55978 23.4913 6.53506 23.4613C6.48897 23.4064 6.43781 23.3604 6.38291 23.3144C6.34148 23.2781 6.30322 23.2395 6.26457 23.2003C6.10078 23.0328 6.10078 23.0328 5.92757 22.8754C5.86972 22.8258 5.81397 22.7739 5.75779 22.7225C5.65419 22.6289 5.54849 22.5383 5.44046 22.4499C5.41531 22.4293 5.39016 22.4086 5.36501 22.388C5.35226 22.3775 5.33951 22.3671 5.32637 22.3563C5.2886 22.3253 5.25094 22.2941 5.21332 22.2629C5.07194 22.1457 4.92929 22.031 4.78264 21.9205C4.77216 21.9125 4.76169 21.9046 4.75089 21.8964C4.60434 21.7854 4.45636 21.6767 4.3063 21.5705C4.27718 21.5498 4.24819 21.5289 4.21923 21.508C4.0119 21.3584 3.79934 21.2183 3.58207 21.0836C3.52972 21.0511 3.47777 21.0181 3.42597 20.9848C3.35608 20.9402 3.28547 20.897 3.21441 20.8543C3.1988 20.8449 3.1988 20.8449 3.18286 20.8353C3.12299 20.7994 3.06274 20.7644 3.002 20.73C2.98882 20.7225 2.97563 20.715 2.96205 20.7072C2.93628 20.6925 2.91043 20.6779 2.88448 20.6636C2.85398 20.6461 2.82461 20.6267 2.79552 20.6069C2.79552 20.5903 2.79552 20.5736 2.79552 20.5564C2.8134 20.5499 2.83129 20.5434 2.84972 20.5367C3.01228 20.4775 3.01228 20.4775 3.16856 20.4037C3.21944 20.3781 3.27258 20.3584 3.32558 20.3376C3.36725 20.321 3.40819 20.3032 3.44912 20.2849C3.46149 20.2794 3.47387 20.2739 3.48662 20.2682C3.51292 20.2563 3.53896 20.2439 3.5649 20.2312C3.63274 20.211 3.6893 20.2291 3.75211 20.2587Z" fill="black"/>
<path d="M11.822 11.9863C11.8275 11.9863 11.8331 11.9863 11.8388 11.9863C11.8391 11.9956 11.8393 12.0049 11.8396 12.0144C11.8424 12.1159 11.8463 12.2173 11.8508 12.3187C11.854 12.3938 11.8566 12.469 11.8587 12.5441C11.8615 12.6395 11.8651 12.7349 11.8692 12.8302C11.8707 12.8688 11.8719 12.9074 11.8728 12.946C11.8698 13.1959 11.8698 13.1959 11.9872 13.4033C12.0159 13.4256 12.045 13.4473 12.0746 13.4683C12.4504 13.863 12.6145 14.4464 12.6018 14.9798C12.579 15.4832 12.3389 16.0004 11.9735 16.3479C11.8489 16.4465 11.7173 16.511 11.5694 16.5668C11.5511 16.5745 11.5328 16.5822 11.5139 16.59C11.4862 16.6015 11.4862 16.6015 11.4578 16.6131C11.433 16.6234 11.433 16.6234 11.4077 16.6339C11.0282 16.7473 10.5989 16.6608 10.2559 16.4826C10.2783 16.4114 10.3052 16.3449 10.3372 16.2775C10.3464 16.2578 10.3557 16.2381 10.3652 16.2179C10.3701 16.2076 10.3749 16.1974 10.3799 16.1869C10.4544 16.0291 10.5269 15.8713 10.5895 15.7084C10.6085 15.6599 10.6295 15.613 10.6516 15.5659C10.7013 15.4586 10.7414 15.3479 10.7821 15.237C10.8015 15.1844 10.8213 15.1321 10.8411 15.0796C10.8495 15.057 10.858 15.0343 10.8664 15.0117C10.8883 14.9532 10.9104 14.8949 10.9325 14.8366C11.039 14.5542 11.1358 14.2692 11.23 13.9825C11.2508 13.9192 11.2718 13.8559 11.293 13.7927C11.3371 13.6617 11.3802 13.531 11.4168 13.3977C11.4524 13.2706 11.4897 13.144 11.5283 13.0178C11.6233 12.7098 11.6233 12.7098 11.7059 12.3984C11.7414 12.2602 11.7823 12.1234 11.822 11.9863Z" fill="black"/>
<path d="M17.598 12.2559C17.6036 12.2559 17.6091 12.2559 17.6148 12.2559C17.604 12.3788 17.5876 12.5003 17.5685 12.6221C17.5656 12.6408 17.5627 12.6595 17.5598 12.6787C17.5331 12.8491 17.5048 13.0192 17.4759 13.1892C17.4557 13.3091 17.4373 13.4291 17.4211 13.5497C17.4099 13.6214 17.3927 13.6913 17.3755 13.7618C17.3567 13.8471 17.3432 13.9332 17.3301 14.0196C17.3188 14.0917 17.3019 14.1569 17.278 14.2261C17.2725 14.2566 17.2676 14.2871 17.2633 14.3177C17.2253 14.5559 17.1468 14.7875 17.076 15.0176C17.0703 15.0364 17.0645 15.0552 17.0587 15.0745C16.8893 15.6087 16.8893 15.6087 16.735 15.7181C16.6783 15.747 16.6216 15.7758 16.5644 15.8039C16.4594 15.8558 16.3554 15.9094 16.2524 15.9655C16.2001 15.9939 16.148 16.0192 16.0929 16.0417C15.999 16.0878 15.9415 16.1822 15.8803 16.2638C15.6079 16.6204 15.297 16.8981 14.9204 17.1395C14.9065 17.1486 14.8926 17.1577 14.8783 17.1671C14.7483 17.2493 14.607 17.3112 14.4674 17.3753C14.4364 17.39 14.4061 17.4064 14.376 17.4229C14.331 17.4426 14.331 17.4426 14.291 17.4373C14.2775 17.4316 14.2775 17.4316 14.2637 17.4258C14.2785 17.4176 14.2934 17.4094 14.3087 17.401C14.441 17.3275 14.5644 17.2486 14.6847 17.1563C14.7022 17.1434 14.7198 17.1306 14.7379 17.1173C15.1227 16.8309 15.4451 16.4575 15.6277 16.0112C15.6346 15.9951 15.6414 15.979 15.6485 15.9624C15.7459 15.7237 15.8042 15.4758 15.8298 15.2197C15.901 15.2468 15.9691 15.2793 16.0371 15.3134C16.0488 15.3192 16.0604 15.325 16.0723 15.331C16.1721 15.3813 16.2695 15.4353 16.3663 15.4911C16.4117 15.5172 16.4536 15.5399 16.5034 15.5565C16.5052 15.5443 16.507 15.532 16.5088 15.5194C16.5213 15.468 16.5399 15.4366 16.5687 15.3923C16.7007 15.173 16.7912 14.9277 16.8891 14.6917C16.9037 14.6566 16.9184 14.6215 16.9332 14.5864C17.0073 14.4062 17.0676 14.2218 17.1281 14.0367C17.1411 13.9972 17.1543 13.9577 17.1677 13.9184C17.2044 13.81 17.2392 13.7012 17.2717 13.5915C17.2766 13.575 17.2766 13.575 17.2816 13.5582C17.3115 13.456 17.3368 13.3528 17.3622 13.2494C17.3822 13.1691 17.4022 13.0887 17.4222 13.0084C17.4274 12.9878 17.4325 12.9672 17.4377 12.946C17.4796 12.7781 17.4796 12.7781 17.5002 12.7088C17.5115 12.6683 17.5179 12.6343 17.5201 12.5927C17.5307 12.4775 17.5666 12.3667 17.598 12.2559Z" fill="black"/>
<path d="M17.5978 12.2559C17.6034 12.2559 17.609 12.2559 17.6147 12.2559C17.6032 12.3764 17.59 12.4967 17.5747 12.6169C17.5728 12.6334 17.5709 12.6498 17.5689 12.6668C17.5669 12.6826 17.5648 12.6984 17.5627 12.7147C17.561 12.7289 17.5592 12.7431 17.5574 12.7577C17.5458 12.8002 17.5303 12.8174 17.4968 12.8453C17.4696 12.7773 17.4936 12.7279 17.5136 12.66C17.5162 12.6376 17.5183 12.6151 17.52 12.5927C17.5306 12.4775 17.5664 12.3667 17.5978 12.2559Z" fill="#AFAFAF"/>
<path d="M15.5776 18.082C15.5776 18.1326 15.5776 18.1326 15.5498 18.1663C15.5307 18.1849 15.5307 18.1849 15.5112 18.204C15.4975 18.2175 15.4838 18.2311 15.4697 18.245C15.4552 18.2591 15.4407 18.2732 15.4258 18.2876C15.4041 18.309 15.4041 18.309 15.3819 18.3308C15.346 18.3661 15.3101 18.4013 15.274 18.4363C15.2628 18.4307 15.2517 18.4252 15.2402 18.4194C15.2569 18.3944 15.2569 18.3944 15.274 18.3688C15.2851 18.3688 15.2962 18.3688 15.3077 18.3688C15.3122 18.358 15.3168 18.3473 15.3214 18.3361C15.3415 18.3013 15.3415 18.3013 15.3921 18.2845C15.4035 18.2621 15.4147 18.2396 15.4258 18.217C15.458 18.1852 15.458 18.1852 15.4943 18.1548C15.5064 18.1446 15.5184 18.1345 15.5308 18.124C15.5407 18.1157 15.5506 18.1074 15.5608 18.0989C15.5663 18.0933 15.5719 18.0878 15.5776 18.082Z" fill="#585858"/>
<path d="M14.5336 17.2578C14.5447 17.2634 14.5559 17.2689 14.5673 17.2747C14.5422 17.346 14.5006 17.3655 14.4345 17.398C14.4168 17.407 14.3991 17.416 14.3808 17.4253C14.3306 17.4436 14.3121 17.4465 14.2637 17.4265C14.2803 17.4172 14.297 17.4078 14.3142 17.3982C14.336 17.3858 14.3578 17.3735 14.3797 17.3611C14.3906 17.355 14.4016 17.3488 14.4129 17.3425C14.4577 17.3171 14.497 17.2944 14.5336 17.2578Z" fill="#CACACA"/>
<path d="M7.40967 24.4648C7.48083 24.5318 7.53809 24.605 7.59524 24.6842C7.58967 24.6953 7.58411 24.7064 7.57837 24.7179C7.55322 24.6917 7.52831 24.6653 7.50351 24.6388C7.48961 24.6241 7.47572 24.6095 7.4614 24.5943C7.42602 24.5485 7.4153 24.5216 7.40967 24.4648Z" fill="#505050"/>
<path d="M10.8621 7.75977C10.8621 7.81038 10.8621 7.81038 10.8252 7.85222C10.8095 7.86729 10.7939 7.88236 10.7778 7.89789C10.7621 7.91309 10.7464 7.92829 10.7303 7.94395C10.7181 7.95555 10.706 7.96714 10.6934 7.97908C10.6823 7.97351 10.6711 7.96794 10.6597 7.96221C10.7217 7.88585 10.7847 7.8206 10.8621 7.75977Z" fill="#686868"/>
</svg>
